<svg width="1262" height="426" viewBox="0 0 1262 426" fill="none" xmlns="http://www.w3.org/2000/svg">
<rect x="562.25" y="176" width="600" height="200" fill="#42A5F5"/>
<rect x="114" y="176" width="448.25" height="200" fill="#64B5F6"/>
<rect x="4" y="176" width="110" height="200" fill="#90CAF9"/>
<line x1="2" y1="426" x2="2" y2="126" stroke="#07020D" stroke-width="4"/>
<line x1="1161" y1="175" x2="1161" y2="125" stroke="#07020D" stroke-width="2"/>
<line x1="113" y1="175" x2="113" y2="125" stroke="#07020D" stroke-width="2"/>
<line x1="561.25" y1="175" x2="561.25" y2="125" stroke="#07020D" stroke-width="2"/>
<line x1="113" y1="375" x2="113" y2="175" stroke="#07020D" stroke-width="2" stroke-dasharray="12 12"/>
<line x1="561.25" y1="375" x2="561.25" y2="175" stroke="#07020D" stroke-width="2" stroke-dasharray="12 12"/>
<path d="M12.0742 82.207V85.7109H10.2695V82.207H12.0742ZM11.8516 101.344V104.484H10.0586V101.344H11.8516ZM13.6211 97.5586C13.6211 97.1055 13.5273 96.7109 13.3398 96.375C13.1602 96.0312 12.8633 95.7227 12.4492 95.4492C12.0352 95.168 11.4805 94.9062 10.7852 94.6641C9.78516 94.3125 8.91016 93.918 8.16016 93.4805C7.41797 93.0352 6.83984 92.4883 6.42578 91.8398C6.01953 91.1836 5.81641 90.3672 5.81641 89.3906C5.81641 88.4297 6.03516 87.5977 6.47266 86.8945C6.91797 86.1914 7.53516 85.6484 8.32422 85.2656C9.11328 84.8828 10.0352 84.6914 11.0898 84.6914C11.9023 84.6914 12.6328 84.8125 13.2812 85.0547C13.9375 85.2969 14.4961 85.6523 14.957 86.1211C15.418 86.5898 15.7695 87.168 16.0117 87.8555C16.2617 88.5352 16.3867 89.3164 16.3867 90.1992H13.5742C13.5742 89.6992 13.5156 89.2539 13.3984 88.8633C13.2891 88.4648 13.125 88.1289 12.9062 87.8555C12.6875 87.5742 12.4219 87.3594 12.1094 87.2109C11.8047 87.0625 11.457 86.9883 11.0664 86.9883C10.5117 86.9883 10.0547 87.0938 9.69531 87.3047C9.33594 87.5078 9.07031 87.7891 8.89844 88.1484C8.73438 88.5078 8.65234 88.918 8.65234 89.3789C8.65234 89.8242 8.73828 90.2148 8.91016 90.5508C9.08203 90.8867 9.375 91.1914 9.78906 91.4648C10.2109 91.7305 10.7891 92 11.5234 92.2734C12.5312 92.6328 13.4023 93.0352 14.1367 93.4805C14.8789 93.918 15.4492 94.4609 15.8477 95.1094C16.2539 95.75 16.457 96.5586 16.457 97.5352C16.457 98.543 16.2227 99.3984 15.7539 100.102C15.293 100.805 14.6445 101.34 13.8086 101.707C12.9805 102.066 12.0156 102.246 10.9141 102.246C10.2188 102.246 9.52734 102.156 8.83984 101.977C8.16016 101.789 7.54297 101.484 6.98828 101.062C6.43359 100.641 5.99219 100.082 5.66406 99.3867C5.33594 98.6836 5.17188 97.8242 5.17188 96.8086H8.00781C8.00781 97.418 8.08984 97.9258 8.25391 98.332C8.41797 98.7383 8.64062 99.0586 8.92188 99.293C9.20312 99.5273 9.51562 99.6953 9.85938 99.7969C10.2109 99.8984 10.5625 99.9492 10.9141 99.9492C11.5 99.9492 11.9922 99.8516 12.3906 99.6562C12.7969 99.4531 13.1016 99.1719 13.3047 98.8125C13.5156 98.4453 13.6211 98.0273 13.6211 97.5586ZM36.0273 92.0391V94.8281C36.0273 96.1641 35.8945 97.3047 35.6289 98.25C35.3711 99.1875 34.9961 99.9492 34.5039 100.535C34.0117 101.121 33.4219 101.551 32.7344 101.824C32.0547 102.098 31.293 102.234 30.4492 102.234C29.7773 102.234 29.1523 102.148 28.5742 101.977C28.0039 101.805 27.4883 101.535 27.0273 101.168C26.5664 100.801 26.1719 100.328 25.8438 99.75C25.5234 99.1641 25.2734 98.4648 25.0938 97.6523C24.9219 96.8398 24.8359 95.8984 24.8359 94.8281V92.0391C24.8359 90.6953 24.9688 89.5625 25.2344 88.6406C25.5 87.7109 25.8789 86.957 26.3711 86.3789C26.8633 85.793 27.4492 85.3672 28.1289 85.1016C28.8164 84.8359 29.582 84.7031 30.4258 84.7031C31.1055 84.7031 31.7305 84.7891 32.3008 84.9609C32.8789 85.125 33.3945 85.3867 33.8477 85.7461C34.3086 86.1055 34.6992 86.5742 35.0195 87.1523C35.3477 87.7227 35.5977 88.4141 35.7695 89.2266C35.9414 90.0312 36.0273 90.9688 36.0273 92.0391ZM33.2031 95.2266V91.6172C33.2031 90.9375 33.1641 90.3398 33.0859 89.8242C33.0078 89.3008 32.8906 88.8594 32.7344 88.5C32.5859 88.1328 32.3984 87.8359 32.1719 87.6094C31.9453 87.375 31.6875 87.207 31.3984 87.1055C31.1094 86.9961 30.7852 86.9414 30.4258 86.9414C29.9883 86.9414 29.5977 87.0273 29.2539 87.1992C28.9102 87.3633 28.6211 87.6289 28.3867 87.9961C28.1523 88.3633 27.9727 88.8477 27.8477 89.4492C27.7305 90.043 27.6719 90.7656 27.6719 91.6172V95.2266C27.6719 95.9141 27.7109 96.5195 27.7891 97.043C27.8672 97.5664 27.9844 98.0156 28.1406 98.3906C28.2969 98.7578 28.4844 99.0625 28.7031 99.3047C28.9297 99.5391 29.1875 99.7109 29.4766 99.8203C29.7734 99.9297 30.0977 99.9844 30.4492 99.9844C30.8945 99.9844 31.2891 99.8984 31.6328 99.7266C31.9766 99.5547 32.2656 99.2812 32.5 98.9062C32.7344 98.5234 32.9102 98.0273 33.0273 97.418C33.1445 96.8086 33.2031 96.0781 33.2031 95.2266Z" fill="#07020D"/>
<path d="M570.324 82.207V85.7109H568.52V82.207H570.324ZM570.102 101.344V104.484H568.309V101.344H570.102ZM571.871 97.5586C571.871 97.1055 571.777 96.7109 571.59 96.375C571.41 96.0312 571.113 95.7227 570.699 95.4492C570.285 95.168 569.73 94.9062 569.035 94.6641C568.035 94.3125 567.16 93.918 566.41 93.4805C565.668 93.0352 565.09 92.4883 564.676 91.8398C564.27 91.1836 564.066 90.3672 564.066 89.3906C564.066 88.4297 564.285 87.5977 564.723 86.8945C565.168 86.1914 565.785 85.6484 566.574 85.2656C567.363 84.8828 568.285 84.6914 569.34 84.6914C570.152 84.6914 570.883 84.8125 571.531 85.0547C572.188 85.2969 572.746 85.6523 573.207 86.1211C573.668 86.5898 574.02 87.168 574.262 87.8555C574.512 88.5352 574.637 89.3164 574.637 90.1992H571.824C571.824 89.6992 571.766 89.2539 571.648 88.8633C571.539 88.4648 571.375 88.1289 571.156 87.8555C570.938 87.5742 570.672 87.3594 570.359 87.2109C570.055 87.0625 569.707 86.9883 569.316 86.9883C568.762 86.9883 568.305 87.0938 567.945 87.3047C567.586 87.5078 567.32 87.7891 567.148 88.1484C566.984 88.5078 566.902 88.918 566.902 89.3789C566.902 89.8242 566.988 90.2148 567.16 90.5508C567.332 90.8867 567.625 91.1914 568.039 91.4648C568.461 91.7305 569.039 92 569.773 92.2734C570.781 92.6328 571.652 93.0352 572.387 93.4805C573.129 93.918 573.699 94.4609 574.098 95.1094C574.504 95.75 574.707 96.5586 574.707 97.5352C574.707 98.543 574.473 99.3984 574.004 100.102C573.543 100.805 572.895 101.34 572.059 101.707C571.23 102.066 570.266 102.246 569.164 102.246C568.469 102.246 567.777 102.156 567.09 101.977C566.41 101.789 565.793 101.484 565.238 101.062C564.684 100.641 564.242 100.082 563.914 99.3867C563.586 98.6836 563.422 97.8242 563.422 96.8086H566.258C566.258 97.418 566.34 97.9258 566.504 98.332C566.668 98.7383 566.891 99.0586 567.172 99.293C567.453 99.5273 567.766 99.6953 568.109 99.7969C568.461 99.8984 568.812 99.9492 569.164 99.9492C569.75 99.9492 570.242 99.8516 570.641 99.6562C571.047 99.4531 571.352 99.1719 571.555 98.8125C571.766 98.4453 571.871 98.0273 571.871 97.5586ZM594.91 95.918V98.168H582.605L582.512 96.4688L589.871 84.9375H592.133L589.684 89.1328L585.453 95.918H594.91ZM592.777 84.9375V102H589.953V84.9375H592.777ZM608.551 95.918V98.168H596.246L596.152 96.4688L603.512 84.9375H605.773L603.324 89.1328L599.094 95.918H608.551ZM606.418 84.9375V102H603.594V84.9375H606.418ZM627.746 84.9375V86.4844L620.926 102H617.949L624.758 87.1875H615.922V84.9375H627.746ZM641.492 99.75V102H630.055V100.066L635.609 94.0078C636.219 93.3203 636.699 92.7266 637.051 92.2266C637.402 91.7266 637.648 91.2773 637.789 90.8789C637.938 90.4727 638.012 90.0781 638.012 89.6953C638.012 89.1562 637.91 88.6836 637.707 88.2773C637.512 87.8633 637.223 87.5391 636.84 87.3047C636.457 87.0625 635.992 86.9414 635.445 86.9414C634.812 86.9414 634.281 87.0781 633.852 87.3516C633.422 87.625 633.098 88.0039 632.879 88.4883C632.66 88.9648 632.551 89.5117 632.551 90.1289H629.727C629.727 89.1367 629.953 88.2305 630.406 87.4102C630.859 86.582 631.516 85.9258 632.375 85.4414C633.234 84.9492 634.27 84.7031 635.48 84.7031C636.621 84.7031 637.59 84.8945 638.387 85.2773C639.184 85.6602 639.789 86.2031 640.203 86.9062C640.625 87.6094 640.836 88.4414 640.836 89.4023C640.836 89.9336 640.75 90.4609 640.578 90.9844C640.406 91.5078 640.16 92.0312 639.84 92.5547C639.527 93.0703 639.156 93.5898 638.727 94.1133C638.297 94.6289 637.824 95.1523 637.309 95.6836L633.617 99.75H641.492ZM646.66 94.0664L644.41 93.5156L645.336 84.9375H654.535V87.3281H647.68L647.211 91.5117C647.477 91.3555 647.844 91.2031 648.312 91.0547C648.781 90.8984 649.316 90.8203 649.918 90.8203C650.723 90.8203 651.441 90.9531 652.074 91.2188C652.715 91.4766 653.258 91.8555 653.703 92.3555C654.148 92.8477 654.488 93.4492 654.723 94.1602C654.957 94.8633 655.074 95.6562 655.074 96.5391C655.074 97.3281 654.957 98.0664 654.723 98.7539C654.496 99.4414 654.152 100.047 653.691 100.57C653.23 101.094 652.648 101.504 651.945 101.801C651.25 102.09 650.426 102.234 649.473 102.234C648.762 102.234 648.078 102.133 647.422 101.93C646.773 101.719 646.191 101.41 645.676 101.004C645.16 100.59 644.746 100.082 644.434 99.4805C644.121 98.8711 643.941 98.1719 643.895 97.3828H646.66C646.73 97.9375 646.883 98.4102 647.117 98.8008C647.359 99.1836 647.68 99.4766 648.078 99.6797C648.477 99.8828 648.938 99.9844 649.461 99.9844C649.938 99.9844 650.348 99.9023 650.691 99.7383C651.035 99.5664 651.32 99.3242 651.547 99.0117C651.781 98.6914 651.953 98.3164 652.062 97.8867C652.18 97.457 652.238 96.9805 652.238 96.457C652.238 95.957 652.172 95.5 652.039 95.0859C651.914 94.6719 651.723 94.3125 651.465 94.0078C651.215 93.7031 650.898 93.4688 650.516 93.3047C650.133 93.1328 649.691 93.0469 649.191 93.0469C648.52 93.0469 648.004 93.1445 647.645 93.3398C647.293 93.5352 646.965 93.7773 646.66 94.0664Z" fill="#07020D"/>
<path d="M34.793 234.938V252H32.5664V234.938H34.793ZM40.2773 234.938V236.789H27.0938V234.938H40.2773ZM48.6211 249.832V243.305C48.6211 242.805 48.5195 242.371 48.3164 242.004C48.1211 241.629 47.8242 241.34 47.4258 241.137C47.0273 240.934 46.5352 240.832 45.9492 240.832C45.4023 240.832 44.9219 240.926 44.5078 241.113C44.1016 241.301 43.7812 241.547 43.5469 241.852C43.3203 242.156 43.207 242.484 43.207 242.836H41.0391C41.0391 242.383 41.1562 241.934 41.3906 241.488C41.625 241.043 41.9609 240.641 42.3984 240.281C42.8438 239.914 43.375 239.625 43.9922 239.414C44.6172 239.195 45.3125 239.086 46.0781 239.086C47 239.086 47.8125 239.242 48.5156 239.555C49.2266 239.867 49.7812 240.34 50.1797 240.973C50.5859 241.598 50.7891 242.383 50.7891 243.328V249.234C50.7891 249.656 50.8242 250.105 50.8945 250.582C50.9727 251.059 51.0859 251.469 51.2344 251.812V252H48.9727C48.8633 251.75 48.7773 251.418 48.7148 251.004C48.6523 250.582 48.6211 250.191 48.6211 249.832ZM48.9961 244.312L49.0195 245.836H46.8281C46.2109 245.836 45.6602 245.887 45.1758 245.988C44.6914 246.082 44.2852 246.227 43.957 246.422C43.6289 246.617 43.3789 246.863 43.207 247.16C43.0352 247.449 42.9492 247.789 42.9492 248.18C42.9492 248.578 43.0391 248.941 43.2188 249.27C43.3984 249.598 43.668 249.859 44.0273 250.055C44.3945 250.242 44.8438 250.336 45.375 250.336C46.0391 250.336 46.625 250.195 47.1328 249.914C47.6406 249.633 48.043 249.289 48.3398 248.883C48.6445 248.477 48.8086 248.082 48.832 247.699L49.7578 248.742C49.7031 249.07 49.5547 249.434 49.3125 249.832C49.0703 250.23 48.7461 250.613 48.3398 250.98C47.9414 251.34 47.4648 251.641 46.9102 251.883C46.3633 252.117 45.7461 252.234 45.0586 252.234C44.1992 252.234 43.4453 252.066 42.7969 251.73C42.1562 251.395 41.6562 250.945 41.2969 250.383C40.9453 249.812 40.7695 249.176 40.7695 248.473C40.7695 247.793 40.9023 247.195 41.168 246.68C41.4336 246.156 41.8164 245.723 42.3164 245.379C42.8164 245.027 43.418 244.762 44.1211 244.582C44.8242 244.402 45.6094 244.312 46.4766 244.312H48.9961ZM55.6641 239.32L58.4414 243.938L61.2539 239.32H63.7969L59.6484 245.578L63.9258 252H61.418L58.4883 247.242L55.5586 252H53.0391L57.3047 245.578L53.168 239.32H55.6641ZM71.1328 252.234C70.25 252.234 69.4492 252.086 68.7305 251.789C68.0195 251.484 67.4062 251.059 66.8906 250.512C66.3828 249.965 65.9922 249.316 65.7188 248.566C65.4453 247.816 65.3086 246.996 65.3086 246.105V245.613C65.3086 244.582 65.4609 243.664 65.7656 242.859C66.0703 242.047 66.4844 241.359 67.0078 240.797C67.5312 240.234 68.125 239.809 68.7891 239.52C69.4531 239.23 70.1406 239.086 70.8516 239.086C71.7578 239.086 72.5391 239.242 73.1953 239.555C73.8594 239.867 74.4023 240.305 74.8242 240.867C75.2461 241.422 75.5586 242.078 75.7617 242.836C75.9648 243.586 76.0664 244.406 76.0664 245.297V246.27H66.5977V244.5H73.8984V244.336C73.8672 243.773 73.75 243.227 73.5469 242.695C73.3516 242.164 73.0391 241.727 72.6094 241.383C72.1797 241.039 71.5938 240.867 70.8516 240.867C70.3594 240.867 69.9062 240.973 69.4922 241.184C69.0781 241.387 68.7227 241.691 68.4258 242.098C68.1289 242.504 67.8984 243 67.7344 243.586C67.5703 244.172 67.4883 244.848 67.4883 245.613V246.105C67.4883 246.707 67.5703 247.273 67.7344 247.805C67.9062 248.328 68.1523 248.789 68.4727 249.188C68.8008 249.586 69.1953 249.898 69.6562 250.125C70.125 250.352 70.6562 250.465 71.25 250.465C72.0156 250.465 72.6641 250.309 73.1953 249.996C73.7266 249.684 74.1914 249.266 74.5898 248.742L75.9023 249.785C75.6289 250.199 75.2812 250.594 74.8594 250.969C74.4375 251.344 73.918 251.648 73.3008 251.883C72.6914 252.117 71.9688 252.234 71.1328 252.234ZM86.5898 249.539V234H88.7695V252H86.7773L86.5898 249.539ZM78.0586 245.801V245.555C78.0586 244.586 78.1758 243.707 78.4102 242.918C78.6523 242.121 78.9922 241.438 79.4297 240.867C79.875 240.297 80.4023 239.859 81.0117 239.555C81.6289 239.242 82.3164 239.086 83.0742 239.086C83.8711 239.086 84.5664 239.227 85.1602 239.508C85.7617 239.781 86.2695 240.184 86.6836 240.715C87.1055 241.238 87.4375 241.871 87.6797 242.613C87.9219 243.355 88.0898 244.195 88.1836 245.133V246.211C88.0977 247.141 87.9297 247.977 87.6797 248.719C87.4375 249.461 87.1055 250.094 86.6836 250.617C86.2695 251.141 85.7617 251.543 85.1602 251.824C84.5586 252.098 83.8555 252.234 83.0508 252.234C82.3086 252.234 81.6289 252.074 81.0117 251.754C80.4023 251.434 79.875 250.984 79.4297 250.406C78.9922 249.828 78.6523 249.148 78.4102 248.367C78.1758 247.578 78.0586 246.723 78.0586 245.801ZM80.2383 245.555V245.801C80.2383 246.434 80.3008 247.027 80.4258 247.582C80.5586 248.137 80.7617 248.625 81.0352 249.047C81.3086 249.469 81.6562 249.801 82.0781 250.043C82.5 250.277 83.0039 250.395 83.5898 250.395C84.3086 250.395 84.8984 250.242 85.3594 249.938C85.8281 249.633 86.2031 249.23 86.4844 248.73C86.7656 248.23 86.9844 247.688 87.1406 247.102V244.277C87.0469 243.848 86.9102 243.434 86.7305 243.035C86.5586 242.629 86.332 242.27 86.0508 241.957C85.7773 241.637 85.4375 241.383 85.0312 241.195C84.6328 241.008 84.1602 240.914 83.6133 240.914C83.0195 240.914 82.5078 241.039 82.0781 241.289C81.6562 241.531 81.3086 241.867 81.0352 242.297C80.7617 242.719 80.5586 243.211 80.4258 243.773C80.3008 244.328 80.2383 244.922 80.2383 245.555ZM57.1758 277.832V271.305C57.1758 270.805 57.0742 270.371 56.8711 270.004C56.6758 269.629 56.3789 269.34 55.9805 269.137C55.582 268.934 55.0898 268.832 54.5039 268.832C53.957 268.832 53.4766 268.926 53.0625 269.113C52.6562 269.301 52.3359 269.547 52.1016 269.852C51.875 270.156 51.7617 270.484 51.7617 270.836H49.5938C49.5938 270.383 49.7109 269.934 49.9453 269.488C50.1797 269.043 50.5156 268.641 50.9531 268.281C51.3984 267.914 51.9297 267.625 52.5469 267.414C53.1719 267.195 53.8672 267.086 54.6328 267.086C55.5547 267.086 56.3672 267.242 57.0703 267.555C57.7812 267.867 58.3359 268.34 58.7344 268.973C59.1406 269.598 59.3438 270.383 59.3438 271.328V277.234C59.3438 277.656 59.3789 278.105 59.4492 278.582C59.5273 279.059 59.6406 279.469 59.7891 279.812V280H57.5273C57.418 279.75 57.332 279.418 57.2695 279.004C57.207 278.582 57.1758 278.191 57.1758 277.832ZM57.5508 272.312L57.5742 273.836H55.3828C54.7656 273.836 54.2148 273.887 53.7305 273.988C53.2461 274.082 52.8398 274.227 52.5117 274.422C52.1836 274.617 51.9336 274.863 51.7617 275.16C51.5898 275.449 51.5039 275.789 51.5039 276.18C51.5039 276.578 51.5938 276.941 51.7734 277.27C51.9531 277.598 52.2227 277.859 52.582 278.055C52.9492 278.242 53.3984 278.336 53.9297 278.336C54.5938 278.336 55.1797 278.195 55.6875 277.914C56.1953 277.633 56.5977 277.289 56.8945 276.883C57.1992 276.477 57.3633 276.082 57.3867 275.699L58.3125 276.742C58.2578 277.07 58.1094 277.434 57.8672 277.832C57.625 278.23 57.3008 278.613 56.8945 278.98C56.4961 279.34 56.0195 279.641 55.4648 279.883C54.918 280.117 54.3008 280.234 53.6133 280.234C52.7539 280.234 52 280.066 51.3516 279.73C50.7109 279.395 50.2109 278.945 49.8516 278.383C49.5 277.812 49.3242 277.176 49.3242 276.473C49.3242 275.793 49.457 275.195 49.7227 274.68C49.9883 274.156 50.3711 273.723 50.8711 273.379C51.3711 273.027 51.9727 272.762 52.6758 272.582C53.3789 272.402 54.1641 272.312 55.0312 272.312H57.5508ZM68.0625 267.32V268.984H61.207V267.32H68.0625ZM63.5273 264.238H65.6953V276.859C65.6953 277.289 65.7617 277.613 65.8945 277.832C66.0273 278.051 66.1992 278.195 66.4102 278.266C66.6211 278.336 66.8477 278.371 67.0898 278.371C67.2695 278.371 67.457 278.355 67.6523 278.324C67.8555 278.285 68.0078 278.254 68.1094 278.23L68.1211 280C67.9492 280.055 67.7227 280.105 67.4414 280.152C67.168 280.207 66.8359 280.234 66.4453 280.234C65.9141 280.234 65.4258 280.129 64.9805 279.918C64.5352 279.707 64.1797 279.355 63.9141 278.863C63.6562 278.363 63.5273 277.691 63.5273 276.848V264.238ZM44.7539 290.844V308H42.5859V293.551L38.2148 295.145V293.188L44.4141 290.844H44.7539ZM61.8398 298.109V300.711C61.8398 302.109 61.7148 303.289 61.4648 304.25C61.2148 305.211 60.8555 305.984 60.3867 306.57C59.918 307.156 59.3516 307.582 58.6875 307.848C58.0312 308.105 57.2891 308.234 56.4609 308.234C55.8047 308.234 55.1992 308.152 54.6445 307.988C54.0898 307.824 53.5898 307.562 53.1445 307.203C52.707 306.836 52.332 306.359 52.0195 305.773C51.707 305.188 51.4688 304.477 51.3047 303.641C51.1406 302.805 51.0586 301.828 51.0586 300.711V298.109C51.0586 296.711 51.1836 295.539 51.4336 294.594C51.6914 293.648 52.0547 292.891 52.5234 292.32C52.9922 291.742 53.5547 291.328 54.2109 291.078C54.875 290.828 55.6172 290.703 56.4375 290.703C57.1016 290.703 57.7109 290.785 58.2656 290.949C58.8281 291.105 59.3281 291.359 59.7656 291.711C60.2031 292.055 60.5742 292.516 60.8789 293.094C61.1914 293.664 61.4297 294.363 61.5938 295.191C61.7578 296.02 61.8398 296.992 61.8398 298.109ZM59.6602 301.062V297.746C59.6602 296.98 59.6133 296.309 59.5195 295.73C59.4336 295.145 59.3047 294.645 59.1328 294.23C58.9609 293.816 58.7422 293.48 58.4766 293.223C58.2188 292.965 57.918 292.777 57.5742 292.66C57.2383 292.535 56.8594 292.473 56.4375 292.473C55.9219 292.473 55.4648 292.57 55.0664 292.766C54.668 292.953 54.332 293.254 54.0586 293.668C53.793 294.082 53.5898 294.625 53.4492 295.297C53.3086 295.969 53.2383 296.785 53.2383 297.746V301.062C53.2383 301.828 53.2812 302.504 53.3672 303.09C53.4609 303.676 53.5977 304.184 53.7773 304.613C53.957 305.035 54.1758 305.383 54.4336 305.656C54.6914 305.93 54.9883 306.133 55.3242 306.266C55.668 306.391 56.0469 306.453 56.4609 306.453C56.9922 306.453 57.457 306.352 57.8555 306.148C58.2539 305.945 58.5859 305.629 58.8516 305.199C59.125 304.762 59.3281 304.203 59.4609 303.523C59.5938 302.836 59.6602 302.016 59.6602 301.062ZM64.4414 295.121V294.219C64.4414 293.57 64.582 292.98 64.8633 292.449C65.1445 291.918 65.5469 291.492 66.0703 291.172C66.5938 290.852 67.2148 290.691 67.9336 290.691C68.668 290.691 69.293 290.852 69.8086 291.172C70.332 291.492 70.7344 291.918 71.0156 292.449C71.2969 292.98 71.4375 293.57 71.4375 294.219V295.121C71.4375 295.754 71.2969 296.336 71.0156 296.867C70.7422 297.398 70.3438 297.824 69.8203 298.145C69.3047 298.465 68.6836 298.625 67.957 298.625C67.2305 298.625 66.6016 298.465 66.0703 298.145C65.5469 297.824 65.1445 297.398 64.8633 296.867C64.582 296.336 64.4414 295.754 64.4414 295.121ZM66.0703 294.219V295.121C66.0703 295.48 66.1367 295.82 66.2695 296.141C66.4102 296.461 66.6211 296.723 66.9023 296.926C67.1836 297.121 67.5352 297.219 67.957 297.219C68.3789 297.219 68.7266 297.121 69 296.926C69.2734 296.723 69.4766 296.461 69.6094 296.141C69.7422 295.82 69.8086 295.48 69.8086 295.121V294.219C69.8086 293.852 69.7383 293.508 69.5977 293.188C69.4648 292.859 69.2578 292.598 68.9766 292.402C68.7031 292.199 68.3555 292.098 67.9336 292.098C67.5195 292.098 67.1719 292.199 66.8906 292.402C66.6172 292.598 66.4102 292.859 66.2695 293.188C66.1367 293.508 66.0703 293.852 66.0703 294.219ZM72.75 304.73V303.816C72.75 303.176 72.8906 302.59 73.1719 302.059C73.4531 301.527 73.8555 301.102 74.3789 300.781C74.9023 300.461 75.5234 300.301 76.2422 300.301C76.9766 300.301 77.6016 300.461 78.1172 300.781C78.6406 301.102 79.043 301.527 79.3242 302.059C79.6055 302.59 79.7461 303.176 79.7461 303.816V304.73C79.7461 305.371 79.6055 305.957 79.3242 306.488C79.0508 307.02 78.6523 307.445 78.1289 307.766C77.6133 308.086 76.9922 308.246 76.2656 308.246C75.5391 308.246 74.9141 308.086 74.3906 307.766C73.8672 307.445 73.4609 307.02 73.1719 306.488C72.8906 305.957 72.75 305.371 72.75 304.73ZM74.3789 303.816V304.73C74.3789 305.09 74.4453 305.434 74.5781 305.762C74.7188 306.082 74.9297 306.344 75.2109 306.547C75.4922 306.742 75.8438 306.84 76.2656 306.84C76.6875 306.84 77.0352 306.742 77.3086 306.547C77.5898 306.344 77.7969 306.082 77.9297 305.762C78.0625 305.441 78.1289 305.098 78.1289 304.73V303.816C78.1289 303.449 78.0586 303.105 77.918 302.785C77.7852 302.465 77.5781 302.207 77.2969 302.012C77.0234 301.809 76.6719 301.707 76.2422 301.707C75.8281 301.707 75.4805 301.809 75.1992 302.012C74.9258 302.207 74.7188 302.465 74.5781 302.785C74.4453 303.105 74.3789 303.449 74.3789 303.816ZM76.7812 293.363L68.4492 306.699L67.2305 305.926L75.5625 292.59L76.7812 293.363Z" fill="#07020D"/>
<path d="M837.793 234.938V252H835.566V234.938H837.793ZM843.277 234.938V236.789H830.094V234.938H843.277ZM851.621 249.832V243.305C851.621 242.805 851.52 242.371 851.316 242.004C851.121 241.629 850.824 241.34 850.426 241.137C850.027 240.934 849.535 240.832 848.949 240.832C848.402 240.832 847.922 240.926 847.508 241.113C847.102 241.301 846.781 241.547 846.547 241.852C846.32 242.156 846.207 242.484 846.207 242.836H844.039C844.039 242.383 844.156 241.934 844.391 241.488C844.625 241.043 844.961 240.641 845.398 240.281C845.844 239.914 846.375 239.625 846.992 239.414C847.617 239.195 848.312 239.086 849.078 239.086C850 239.086 850.812 239.242 851.516 239.555C852.227 239.867 852.781 240.34 853.18 240.973C853.586 241.598 853.789 242.383 853.789 243.328V249.234C853.789 249.656 853.824 250.105 853.895 250.582C853.973 251.059 854.086 251.469 854.234 251.812V252H851.973C851.863 251.75 851.777 251.418 851.715 251.004C851.652 250.582 851.621 250.191 851.621 249.832ZM851.996 244.312L852.02 245.836H849.828C849.211 245.836 848.66 245.887 848.176 245.988C847.691 246.082 847.285 246.227 846.957 246.422C846.629 246.617 846.379 246.863 846.207 247.16C846.035 247.449 845.949 247.789 845.949 248.18C845.949 248.578 846.039 248.941 846.219 249.27C846.398 249.598 846.668 249.859 847.027 250.055C847.395 250.242 847.844 250.336 848.375 250.336C849.039 250.336 849.625 250.195 850.133 249.914C850.641 249.633 851.043 249.289 851.34 248.883C851.645 248.477 851.809 248.082 851.832 247.699L852.758 248.742C852.703 249.07 852.555 249.434 852.312 249.832C852.07 250.23 851.746 250.613 851.34 250.98C850.941 251.34 850.465 251.641 849.91 251.883C849.363 252.117 848.746 252.234 848.059 252.234C847.199 252.234 846.445 252.066 845.797 251.73C845.156 251.395 844.656 250.945 844.297 250.383C843.945 249.812 843.77 249.176 843.77 248.473C843.77 247.793 843.902 247.195 844.168 246.68C844.434 246.156 844.816 245.723 845.316 245.379C845.816 245.027 846.418 244.762 847.121 244.582C847.824 244.402 848.609 244.312 849.477 244.312H851.996ZM858.664 239.32L861.441 243.938L864.254 239.32H866.797L862.648 245.578L866.926 252H864.418L861.488 247.242L858.559 252H856.039L860.305 245.578L856.168 239.32H858.664ZM874.133 252.234C873.25 252.234 872.449 252.086 871.73 251.789C871.02 251.484 870.406 251.059 869.891 250.512C869.383 249.965 868.992 249.316 868.719 248.566C868.445 247.816 868.309 246.996 868.309 246.105V245.613C868.309 244.582 868.461 243.664 868.766 242.859C869.07 242.047 869.484 241.359 870.008 240.797C870.531 240.234 871.125 239.809 871.789 239.52C872.453 239.23 873.141 239.086 873.852 239.086C874.758 239.086 875.539 239.242 876.195 239.555C876.859 239.867 877.402 240.305 877.824 240.867C878.246 241.422 878.559 242.078 878.762 242.836C878.965 243.586 879.066 244.406 879.066 245.297V246.27H869.598V244.5H876.898V244.336C876.867 243.773 876.75 243.227 876.547 242.695C876.352 242.164 876.039 241.727 875.609 241.383C875.18 241.039 874.594 240.867 873.852 240.867C873.359 240.867 872.906 240.973 872.492 241.184C872.078 241.387 871.723 241.691 871.426 242.098C871.129 242.504 870.898 243 870.734 243.586C870.57 244.172 870.488 244.848 870.488 245.613V246.105C870.488 246.707 870.57 247.273 870.734 247.805C870.906 248.328 871.152 248.789 871.473 249.188C871.801 249.586 872.195 249.898 872.656 250.125C873.125 250.352 873.656 250.465 874.25 250.465C875.016 250.465 875.664 250.309 876.195 249.996C876.727 249.684 877.191 249.266 877.59 248.742L878.902 249.785C878.629 250.199 878.281 250.594 877.859 250.969C877.438 251.344 876.918 251.648 876.301 251.883C875.691 252.117 874.969 252.234 874.133 252.234ZM889.59 249.539V234H891.77V252H889.777L889.59 249.539ZM881.059 245.801V245.555C881.059 244.586 881.176 243.707 881.41 242.918C881.652 242.121 881.992 241.438 882.43 240.867C882.875 240.297 883.402 239.859 884.012 239.555C884.629 239.242 885.316 239.086 886.074 239.086C886.871 239.086 887.566 239.227 888.16 239.508C888.762 239.781 889.27 240.184 889.684 240.715C890.105 241.238 890.438 241.871 890.68 242.613C890.922 243.355 891.09 244.195 891.184 245.133V246.211C891.098 247.141 890.93 247.977 890.68 248.719C890.438 249.461 890.105 250.094 889.684 250.617C889.27 251.141 888.762 251.543 888.16 251.824C887.559 252.098 886.855 252.234 886.051 252.234C885.309 252.234 884.629 252.074 884.012 251.754C883.402 251.434 882.875 250.984 882.43 250.406C881.992 249.828 881.652 249.148 881.41 248.367C881.176 247.578 881.059 246.723 881.059 245.801ZM883.238 245.555V245.801C883.238 246.434 883.301 247.027 883.426 247.582C883.559 248.137 883.762 248.625 884.035 249.047C884.309 249.469 884.656 249.801 885.078 250.043C885.5 250.277 886.004 250.395 886.59 250.395C887.309 250.395 887.898 250.242 888.359 249.938C888.828 249.633 889.203 249.23 889.484 248.73C889.766 248.23 889.984 247.688 890.141 247.102V244.277C890.047 243.848 889.91 243.434 889.73 243.035C889.559 242.629 889.332 242.27 889.051 241.957C888.777 241.637 888.438 241.383 888.031 241.195C887.633 241.008 887.16 240.914 886.613 240.914C886.02 240.914 885.508 241.039 885.078 241.289C884.656 241.531 884.309 241.867 884.035 242.297C883.762 242.719 883.559 243.211 883.426 243.773C883.301 244.328 883.238 244.922 883.238 245.555ZM857.199 277.832V271.305C857.199 270.805 857.098 270.371 856.895 270.004C856.699 269.629 856.402 269.34 856.004 269.137C855.605 268.934 855.113 268.832 854.527 268.832C853.98 268.832 853.5 268.926 853.086 269.113C852.68 269.301 852.359 269.547 852.125 269.852C851.898 270.156 851.785 270.484 851.785 270.836H849.617C849.617 270.383 849.734 269.934 849.969 269.488C850.203 269.043 850.539 268.641 850.977 268.281C851.422 267.914 851.953 267.625 852.57 267.414C853.195 267.195 853.891 267.086 854.656 267.086C855.578 267.086 856.391 267.242 857.094 267.555C857.805 267.867 858.359 268.34 858.758 268.973C859.164 269.598 859.367 270.383 859.367 271.328V277.234C859.367 277.656 859.402 278.105 859.473 278.582C859.551 279.059 859.664 279.469 859.812 279.812V280H857.551C857.441 279.75 857.355 279.418 857.293 279.004C857.23 278.582 857.199 278.191 857.199 277.832ZM857.574 272.312L857.598 273.836H855.406C854.789 273.836 854.238 273.887 853.754 273.988C853.27 274.082 852.863 274.227 852.535 274.422C852.207 274.617 851.957 274.863 851.785 275.16C851.613 275.449 851.527 275.789 851.527 276.18C851.527 276.578 851.617 276.941 851.797 277.27C851.977 277.598 852.246 277.859 852.605 278.055C852.973 278.242 853.422 278.336 853.953 278.336C854.617 278.336 855.203 278.195 855.711 277.914C856.219 277.633 856.621 277.289 856.918 276.883C857.223 276.477 857.387 276.082 857.41 275.699L858.336 276.742C858.281 277.07 858.133 277.434 857.891 277.832C857.648 278.23 857.324 278.613 856.918 278.98C856.52 279.34 856.043 279.641 855.488 279.883C854.941 280.117 854.324 280.234 853.637 280.234C852.777 280.234 852.023 280.066 851.375 279.73C850.734 279.395 850.234 278.945 849.875 278.383C849.523 277.812 849.348 277.176 849.348 276.473C849.348 275.793 849.48 275.195 849.746 274.68C850.012 274.156 850.395 273.723 850.895 273.379C851.395 273.027 851.996 272.762 852.699 272.582C853.402 272.402 854.188 272.312 855.055 272.312H857.574ZM868.086 267.32V268.984H861.23V267.32H868.086ZM863.551 264.238H865.719V276.859C865.719 277.289 865.785 277.613 865.918 277.832C866.051 278.051 866.223 278.195 866.434 278.266C866.645 278.336 866.871 278.371 867.113 278.371C867.293 278.371 867.48 278.355 867.676 278.324C867.879 278.285 868.031 278.254 868.133 278.23L868.145 280C867.973 280.055 867.746 280.105 867.465 280.152C867.191 280.207 866.859 280.234 866.469 280.234C865.938 280.234 865.449 280.129 865.004 279.918C864.559 279.707 864.203 279.355 863.938 278.863C863.68 278.363 863.551 277.691 863.551 276.848V264.238ZM851.809 306.219V308H840.641V306.441L846.23 300.219C846.918 299.453 847.449 298.805 847.824 298.273C848.207 297.734 848.473 297.254 848.621 296.832C848.777 296.402 848.855 295.965 848.855 295.52C848.855 294.957 848.738 294.449 848.504 293.996C848.277 293.535 847.941 293.168 847.496 292.895C847.051 292.621 846.512 292.484 845.879 292.484C845.121 292.484 844.488 292.633 843.98 292.93C843.48 293.219 843.105 293.625 842.855 294.148C842.605 294.672 842.48 295.273 842.48 295.953H840.312C840.312 294.992 840.523 294.113 840.945 293.316C841.367 292.52 841.992 291.887 842.82 291.418C843.648 290.941 844.668 290.703 845.879 290.703C846.957 290.703 847.879 290.895 848.645 291.277C849.41 291.652 849.996 292.184 850.402 292.871C850.816 293.551 851.023 294.348 851.023 295.262C851.023 295.762 850.938 296.27 850.766 296.785C850.602 297.293 850.371 297.801 850.074 298.309C849.785 298.816 849.445 299.316 849.055 299.809C848.672 300.301 848.262 300.785 847.824 301.262L843.254 306.219H851.809ZM865.309 306.219V308H854.141V306.441L859.73 300.219C860.418 299.453 860.949 298.805 861.324 298.273C861.707 297.734 861.973 297.254 862.121 296.832C862.277 296.402 862.355 295.965 862.355 295.52C862.355 294.957 862.238 294.449 862.004 293.996C861.777 293.535 861.441 293.168 860.996 292.895C860.551 292.621 860.012 292.484 859.379 292.484C858.621 292.484 857.988 292.633 857.48 292.93C856.98 293.219 856.605 293.625 856.355 294.148C856.105 294.672 855.98 295.273 855.98 295.953H853.812C853.812 294.992 854.023 294.113 854.445 293.316C854.867 292.52 855.492 291.887 856.32 291.418C857.148 290.941 858.168 290.703 859.379 290.703C860.457 290.703 861.379 290.895 862.145 291.277C862.91 291.652 863.496 292.184 863.902 292.871C864.316 293.551 864.523 294.348 864.523 295.262C864.523 295.762 864.438 296.27 864.266 296.785C864.102 297.293 863.871 297.801 863.574 298.309C863.285 298.816 862.945 299.316 862.555 299.809C862.172 300.301 861.762 300.785 861.324 301.262L856.754 306.219H865.309ZM867.441 295.121V294.219C867.441 293.57 867.582 292.98 867.863 292.449C868.145 291.918 868.547 291.492 869.07 291.172C869.594 290.852 870.215 290.691 870.934 290.691C871.668 290.691 872.293 290.852 872.809 291.172C873.332 291.492 873.734 291.918 874.016 292.449C874.297 292.98 874.438 293.57 874.438 294.219V295.121C874.438 295.754 874.297 296.336 874.016 296.867C873.742 297.398 873.344 297.824 872.82 298.145C872.305 298.465 871.684 298.625 870.957 298.625C870.23 298.625 869.602 298.465 869.07 298.145C868.547 297.824 868.145 297.398 867.863 296.867C867.582 296.336 867.441 295.754 867.441 295.121ZM869.07 294.219V295.121C869.07 295.48 869.137 295.82 869.27 296.141C869.41 296.461 869.621 296.723 869.902 296.926C870.184 297.121 870.535 297.219 870.957 297.219C871.379 297.219 871.727 297.121 872 296.926C872.273 296.723 872.477 296.461 872.609 296.141C872.742 295.82 872.809 295.48 872.809 295.121V294.219C872.809 293.852 872.738 293.508 872.598 293.188C872.465 292.859 872.258 292.598 871.977 292.402C871.703 292.199 871.355 292.098 870.934 292.098C870.52 292.098 870.172 292.199 869.891 292.402C869.617 292.598 869.41 292.859 869.27 293.188C869.137 293.508 869.07 293.852 869.07 294.219ZM875.75 304.73V303.816C875.75 303.176 875.891 302.59 876.172 302.059C876.453 301.527 876.855 301.102 877.379 300.781C877.902 300.461 878.523 300.301 879.242 300.301C879.977 300.301 880.602 300.461 881.117 300.781C881.641 301.102 882.043 301.527 882.324 302.059C882.605 302.59 882.746 303.176 882.746 303.816V304.73C882.746 305.371 882.605 305.957 882.324 306.488C882.051 307.02 881.652 307.445 881.129 307.766C880.613 308.086 879.992 308.246 879.266 308.246C878.539 308.246 877.914 308.086 877.391 307.766C876.867 307.445 876.461 307.02 876.172 306.488C875.891 305.957 875.75 305.371 875.75 304.73ZM877.379 303.816V304.73C877.379 305.09 877.445 305.434 877.578 305.762C877.719 306.082 877.93 306.344 878.211 306.547C878.492 306.742 878.844 306.84 879.266 306.84C879.688 306.84 880.035 306.742 880.309 306.547C880.59 306.344 880.797 306.082 880.93 305.762C881.062 305.441 881.129 305.098 881.129 304.73V303.816C881.129 303.449 881.059 303.105 880.918 302.785C880.785 302.465 880.578 302.207 880.297 302.012C880.023 301.809 879.672 301.707 879.242 301.707C878.828 301.707 878.48 301.809 878.199 302.012C877.926 302.207 877.719 302.465 877.578 302.785C877.445 303.105 877.379 303.449 877.379 303.816ZM879.781 293.363L871.449 306.699L870.23 305.926L878.562 292.59L879.781 293.363Z" fill="#07020D"/>
<path d="M313.793 234.938V252H311.566V234.938H313.793ZM319.277 234.938V236.789H306.094V234.938H319.277ZM327.621 249.832V243.305C327.621 242.805 327.52 242.371 327.316 242.004C327.121 241.629 326.824 241.34 326.426 241.137C326.027 240.934 325.535 240.832 324.949 240.832C324.402 240.832 323.922 240.926 323.508 241.113C323.102 241.301 322.781 241.547 322.547 241.852C322.32 242.156 322.207 242.484 322.207 242.836H320.039C320.039 242.383 320.156 241.934 320.391 241.488C320.625 241.043 320.961 240.641 321.398 240.281C321.844 239.914 322.375 239.625 322.992 239.414C323.617 239.195 324.312 239.086 325.078 239.086C326 239.086 326.812 239.242 327.516 239.555C328.227 239.867 328.781 240.34 329.18 240.973C329.586 241.598 329.789 242.383 329.789 243.328V249.234C329.789 249.656 329.824 250.105 329.895 250.582C329.973 251.059 330.086 251.469 330.234 251.812V252H327.973C327.863 251.75 327.777 251.418 327.715 251.004C327.652 250.582 327.621 250.191 327.621 249.832ZM327.996 244.312L328.02 245.836H325.828C325.211 245.836 324.66 245.887 324.176 245.988C323.691 246.082 323.285 246.227 322.957 246.422C322.629 246.617 322.379 246.863 322.207 247.16C322.035 247.449 321.949 247.789 321.949 248.18C321.949 248.578 322.039 248.941 322.219 249.27C322.398 249.598 322.668 249.859 323.027 250.055C323.395 250.242 323.844 250.336 324.375 250.336C325.039 250.336 325.625 250.195 326.133 249.914C326.641 249.633 327.043 249.289 327.34 248.883C327.645 248.477 327.809 248.082 327.832 247.699L328.758 248.742C328.703 249.07 328.555 249.434 328.312 249.832C328.07 250.23 327.746 250.613 327.34 250.98C326.941 251.34 326.465 251.641 325.91 251.883C325.363 252.117 324.746 252.234 324.059 252.234C323.199 252.234 322.445 252.066 321.797 251.73C321.156 251.395 320.656 250.945 320.297 250.383C319.945 249.812 319.77 249.176 319.77 248.473C319.77 247.793 319.902 247.195 320.168 246.68C320.434 246.156 320.816 245.723 321.316 245.379C321.816 245.027 322.418 244.762 323.121 244.582C323.824 244.402 324.609 244.312 325.477 244.312H327.996ZM334.664 239.32L337.441 243.938L340.254 239.32H342.797L338.648 245.578L342.926 252H340.418L337.488 247.242L334.559 252H332.039L336.305 245.578L332.168 239.32H334.664ZM350.133 252.234C349.25 252.234 348.449 252.086 347.73 251.789C347.02 251.484 346.406 251.059 345.891 250.512C345.383 249.965 344.992 249.316 344.719 248.566C344.445 247.816 344.309 246.996 344.309 246.105V245.613C344.309 244.582 344.461 243.664 344.766 242.859C345.07 242.047 345.484 241.359 346.008 240.797C346.531 240.234 347.125 239.809 347.789 239.52C348.453 239.23 349.141 239.086 349.852 239.086C350.758 239.086 351.539 239.242 352.195 239.555C352.859 239.867 353.402 240.305 353.824 240.867C354.246 241.422 354.559 242.078 354.762 242.836C354.965 243.586 355.066 244.406 355.066 245.297V246.27H345.598V244.5H352.898V244.336C352.867 243.773 352.75 243.227 352.547 242.695C352.352 242.164 352.039 241.727 351.609 241.383C351.18 241.039 350.594 240.867 349.852 240.867C349.359 240.867 348.906 240.973 348.492 241.184C348.078 241.387 347.723 241.691 347.426 242.098C347.129 242.504 346.898 243 346.734 243.586C346.57 244.172 346.488 244.848 346.488 245.613V246.105C346.488 246.707 346.57 247.273 346.734 247.805C346.906 248.328 347.152 248.789 347.473 249.188C347.801 249.586 348.195 249.898 348.656 250.125C349.125 250.352 349.656 250.465 350.25 250.465C351.016 250.465 351.664 250.309 352.195 249.996C352.727 249.684 353.191 249.266 353.59 248.742L354.902 249.785C354.629 250.199 354.281 250.594 353.859 250.969C353.438 251.344 352.918 251.648 352.301 251.883C351.691 252.117 350.969 252.234 350.133 252.234ZM365.59 249.539V234H367.77V252H365.777L365.59 249.539ZM357.059 245.801V245.555C357.059 244.586 357.176 243.707 357.41 242.918C357.652 242.121 357.992 241.438 358.43 240.867C358.875 240.297 359.402 239.859 360.012 239.555C360.629 239.242 361.316 239.086 362.074 239.086C362.871 239.086 363.566 239.227 364.16 239.508C364.762 239.781 365.27 240.184 365.684 240.715C366.105 241.238 366.438 241.871 366.68 242.613C366.922 243.355 367.09 244.195 367.184 245.133V246.211C367.098 247.141 366.93 247.977 366.68 248.719C366.438 249.461 366.105 250.094 365.684 250.617C365.27 251.141 364.762 251.543 364.16 251.824C363.559 252.098 362.855 252.234 362.051 252.234C361.309 252.234 360.629 252.074 360.012 251.754C359.402 251.434 358.875 250.984 358.43 250.406C357.992 249.828 357.652 249.148 357.41 248.367C357.176 247.578 357.059 246.723 357.059 245.801ZM359.238 245.555V245.801C359.238 246.434 359.301 247.027 359.426 247.582C359.559 248.137 359.762 248.625 360.035 249.047C360.309 249.469 360.656 249.801 361.078 250.043C361.5 250.277 362.004 250.395 362.59 250.395C363.309 250.395 363.898 250.242 364.359 249.938C364.828 249.633 365.203 249.23 365.484 248.73C365.766 248.23 365.984 247.688 366.141 247.102V244.277C366.047 243.848 365.91 243.434 365.73 243.035C365.559 242.629 365.332 242.27 365.051 241.957C364.777 241.637 364.438 241.383 364.031 241.195C363.633 241.008 363.16 240.914 362.613 240.914C362.02 240.914 361.508 241.039 361.078 241.289C360.656 241.531 360.309 241.867 360.035 242.297C359.762 242.719 359.559 243.211 359.426 243.773C359.301 244.328 359.238 244.922 359.238 245.555ZM336.176 277.832V271.305C336.176 270.805 336.074 270.371 335.871 270.004C335.676 269.629 335.379 269.34 334.98 269.137C334.582 268.934 334.09 268.832 333.504 268.832C332.957 268.832 332.477 268.926 332.062 269.113C331.656 269.301 331.336 269.547 331.102 269.852C330.875 270.156 330.762 270.484 330.762 270.836H328.594C328.594 270.383 328.711 269.934 328.945 269.488C329.18 269.043 329.516 268.641 329.953 268.281C330.398 267.914 330.93 267.625 331.547 267.414C332.172 267.195 332.867 267.086 333.633 267.086C334.555 267.086 335.367 267.242 336.07 267.555C336.781 267.867 337.336 268.34 337.734 268.973C338.141 269.598 338.344 270.383 338.344 271.328V277.234C338.344 277.656 338.379 278.105 338.449 278.582C338.527 279.059 338.641 279.469 338.789 279.812V280H336.527C336.418 279.75 336.332 279.418 336.27 279.004C336.207 278.582 336.176 278.191 336.176 277.832ZM336.551 272.312L336.574 273.836H334.383C333.766 273.836 333.215 273.887 332.73 273.988C332.246 274.082 331.84 274.227 331.512 274.422C331.184 274.617 330.934 274.863 330.762 275.16C330.59 275.449 330.504 275.789 330.504 276.18C330.504 276.578 330.594 276.941 330.773 277.27C330.953 277.598 331.223 277.859 331.582 278.055C331.949 278.242 332.398 278.336 332.93 278.336C333.594 278.336 334.18 278.195 334.688 277.914C335.195 277.633 335.598 277.289 335.895 276.883C336.199 276.477 336.363 276.082 336.387 275.699L337.312 276.742C337.258 277.07 337.109 277.434 336.867 277.832C336.625 278.23 336.301 278.613 335.895 278.98C335.496 279.34 335.02 279.641 334.465 279.883C333.918 280.117 333.301 280.234 332.613 280.234C331.754 280.234 331 280.066 330.352 279.73C329.711 279.395 329.211 278.945 328.852 278.383C328.5 277.812 328.324 277.176 328.324 276.473C328.324 275.793 328.457 275.195 328.723 274.68C328.988 274.156 329.371 273.723 329.871 273.379C330.371 273.027 330.973 272.762 331.676 272.582C332.379 272.402 333.164 272.312 334.031 272.312H336.551ZM347.062 267.32V268.984H340.207V267.32H347.062ZM342.527 264.238H344.695V276.859C344.695 277.289 344.762 277.613 344.895 277.832C345.027 278.051 345.199 278.195 345.41 278.266C345.621 278.336 345.848 278.371 346.09 278.371C346.27 278.371 346.457 278.355 346.652 278.324C346.855 278.285 347.008 278.254 347.109 278.23L347.121 280C346.949 280.055 346.723 280.105 346.441 280.152C346.168 280.207 345.836 280.234 345.445 280.234C344.914 280.234 344.426 280.129 343.98 279.918C343.535 279.707 343.18 279.355 342.914 278.863C342.656 278.363 342.527 277.691 342.527 276.848V264.238ZM323.754 290.844V308H321.586V293.551L317.215 295.145V293.188L323.414 290.844H323.754ZM341.309 306.219V308H330.141V306.441L335.73 300.219C336.418 299.453 336.949 298.805 337.324 298.273C337.707 297.734 337.973 297.254 338.121 296.832C338.277 296.402 338.355 295.965 338.355 295.52C338.355 294.957 338.238 294.449 338.004 293.996C337.777 293.535 337.441 293.168 336.996 292.895C336.551 292.621 336.012 292.484 335.379 292.484C334.621 292.484 333.988 292.633 333.48 292.93C332.98 293.219 332.605 293.625 332.355 294.148C332.105 294.672 331.98 295.273 331.98 295.953H329.812C329.812 294.992 330.023 294.113 330.445 293.316C330.867 292.52 331.492 291.887 332.32 291.418C333.148 290.941 334.168 290.703 335.379 290.703C336.457 290.703 337.379 290.895 338.145 291.277C338.91 291.652 339.496 292.184 339.902 292.871C340.316 293.551 340.523 294.348 340.523 295.262C340.523 295.762 340.438 296.27 340.266 296.785C340.102 297.293 339.871 297.801 339.574 298.309C339.285 298.816 338.945 299.316 338.555 299.809C338.172 300.301 337.762 300.785 337.324 301.262L332.754 306.219H341.309ZM343.441 295.121V294.219C343.441 293.57 343.582 292.98 343.863 292.449C344.145 291.918 344.547 291.492 345.07 291.172C345.594 290.852 346.215 290.691 346.934 290.691C347.668 290.691 348.293 290.852 348.809 291.172C349.332 291.492 349.734 291.918 350.016 292.449C350.297 292.98 350.438 293.57 350.438 294.219V295.121C350.438 295.754 350.297 296.336 350.016 296.867C349.742 297.398 349.344 297.824 348.82 298.145C348.305 298.465 347.684 298.625 346.957 298.625C346.23 298.625 345.602 298.465 345.07 298.145C344.547 297.824 344.145 297.398 343.863 296.867C343.582 296.336 343.441 295.754 343.441 295.121ZM345.07 294.219V295.121C345.07 295.48 345.137 295.82 345.27 296.141C345.41 296.461 345.621 296.723 345.902 296.926C346.184 297.121 346.535 297.219 346.957 297.219C347.379 297.219 347.727 297.121 348 296.926C348.273 296.723 348.477 296.461 348.609 296.141C348.742 295.82 348.809 295.48 348.809 295.121V294.219C348.809 293.852 348.738 293.508 348.598 293.188C348.465 292.859 348.258 292.598 347.977 292.402C347.703 292.199 347.355 292.098 346.934 292.098C346.52 292.098 346.172 292.199 345.891 292.402C345.617 292.598 345.41 292.859 345.27 293.188C345.137 293.508 345.07 293.852 345.07 294.219ZM351.75 304.73V303.816C351.75 303.176 351.891 302.59 352.172 302.059C352.453 301.527 352.855 301.102 353.379 300.781C353.902 300.461 354.523 300.301 355.242 300.301C355.977 300.301 356.602 300.461 357.117 300.781C357.641 301.102 358.043 301.527 358.324 302.059C358.605 302.59 358.746 303.176 358.746 303.816V304.73C358.746 305.371 358.605 305.957 358.324 306.488C358.051 307.02 357.652 307.445 357.129 307.766C356.613 308.086 355.992 308.246 355.266 308.246C354.539 308.246 353.914 308.086 353.391 307.766C352.867 307.445 352.461 307.02 352.172 306.488C351.891 305.957 351.75 305.371 351.75 304.73ZM353.379 303.816V304.73C353.379 305.09 353.445 305.434 353.578 305.762C353.719 306.082 353.93 306.344 354.211 306.547C354.492 306.742 354.844 306.84 355.266 306.84C355.688 306.84 356.035 306.742 356.309 306.547C356.59 306.344 356.797 306.082 356.93 305.762C357.062 305.441 357.129 305.098 357.129 304.73V303.816C357.129 303.449 357.059 303.105 356.918 302.785C356.785 302.465 356.578 302.207 356.297 302.012C356.023 301.809 355.672 301.707 355.242 301.707C354.828 301.707 354.48 301.809 354.199 302.012C353.926 302.207 353.719 302.465 353.578 302.785C353.445 303.105 353.379 303.449 353.379 303.816ZM355.781 293.363L347.449 306.699L346.23 305.926L354.562 292.59L355.781 293.363Z" fill="#07020D"/>
<path d="M122.074 82.207V85.7109H120.27V82.207H122.074ZM121.852 101.344V104.484H120.059V101.344H121.852ZM123.621 97.5586C123.621 97.1055 123.527 96.7109 123.34 96.375C123.16 96.0312 122.863 95.7227 122.449 95.4492C122.035 95.168 121.48 94.9062 120.785 94.6641C119.785 94.3125 118.91 93.918 118.16 93.4805C117.418 93.0352 116.84 92.4883 116.426 91.8398C116.02 91.1836 115.816 90.3672 115.816 89.3906C115.816 88.4297 116.035 87.5977 116.473 86.8945C116.918 86.1914 117.535 85.6484 118.324 85.2656C119.113 84.8828 120.035 84.6914 121.09 84.6914C121.902 84.6914 122.633 84.8125 123.281 85.0547C123.938 85.2969 124.496 85.6523 124.957 86.1211C125.418 86.5898 125.77 87.168 126.012 87.8555C126.262 88.5352 126.387 89.3164 126.387 90.1992H123.574C123.574 89.6992 123.516 89.2539 123.398 88.8633C123.289 88.4648 123.125 88.1289 122.906 87.8555C122.688 87.5742 122.422 87.3594 122.109 87.2109C121.805 87.0625 121.457 86.9883 121.066 86.9883C120.512 86.9883 120.055 87.0938 119.695 87.3047C119.336 87.5078 119.07 87.7891 118.898 88.1484C118.734 88.5078 118.652 88.918 118.652 89.3789C118.652 89.8242 118.738 90.2148 118.91 90.5508C119.082 90.8867 119.375 91.1914 119.789 91.4648C120.211 91.7305 120.789 92 121.523 92.2734C122.531 92.6328 123.402 93.0352 124.137 93.4805C124.879 93.918 125.449 94.4609 125.848 95.1094C126.254 95.75 126.457 96.5586 126.457 97.5352C126.457 98.543 126.223 99.3984 125.754 100.102C125.293 100.805 124.645 101.34 123.809 101.707C122.98 102.066 122.016 102.246 120.914 102.246C120.219 102.246 119.527 102.156 118.84 101.977C118.16 101.789 117.543 101.484 116.988 101.062C116.434 100.641 115.992 100.082 115.664 99.3867C115.336 98.6836 115.172 97.8242 115.172 96.8086H118.008C118.008 97.418 118.09 97.9258 118.254 98.332C118.418 98.7383 118.641 99.0586 118.922 99.293C119.203 99.5273 119.516 99.6953 119.859 99.7969C120.211 99.8984 120.562 99.9492 120.914 99.9492C121.5 99.9492 121.992 99.8516 122.391 99.6562C122.797 99.4531 123.102 99.1719 123.305 98.8125C123.516 98.4453 123.621 98.0273 123.621 97.5586ZM142.617 84.8789V102H139.793V88.2305L135.609 89.6484V87.3164L142.277 84.8789H142.617ZM156.258 84.8789V102H153.434V88.2305L149.25 89.6484V87.3164L155.918 84.8789H156.258ZM179.285 92.0391V94.8281C179.285 96.1641 179.152 97.3047 178.887 98.25C178.629 99.1875 178.254 99.9492 177.762 100.535C177.27 101.121 176.68 101.551 175.992 101.824C175.312 102.098 174.551 102.234 173.707 102.234C173.035 102.234 172.41 102.148 171.832 101.977C171.262 101.805 170.746 101.535 170.285 101.168C169.824 100.801 169.43 100.328 169.102 99.75C168.781 99.1641 168.531 98.4648 168.352 97.6523C168.18 96.8398 168.094 95.8984 168.094 94.8281V92.0391C168.094 90.6953 168.227 89.5625 168.492 88.6406C168.758 87.7109 169.137 86.957 169.629 86.3789C170.121 85.793 170.707 85.3672 171.387 85.1016C172.074 84.8359 172.84 84.7031 173.684 84.7031C174.363 84.7031 174.988 84.7891 175.559 84.9609C176.137 85.125 176.652 85.3867 177.105 85.7461C177.566 86.1055 177.957 86.5742 178.277 87.1523C178.605 87.7227 178.855 88.4141 179.027 89.2266C179.199 90.0312 179.285 90.9688 179.285 92.0391ZM176.461 95.2266V91.6172C176.461 90.9375 176.422 90.3398 176.344 89.8242C176.266 89.3008 176.148 88.8594 175.992 88.5C175.844 88.1328 175.656 87.8359 175.43 87.6094C175.203 87.375 174.945 87.207 174.656 87.1055C174.367 86.9961 174.043 86.9414 173.684 86.9414C173.246 86.9414 172.855 87.0273 172.512 87.1992C172.168 87.3633 171.879 87.6289 171.645 87.9961C171.41 88.3633 171.23 88.8477 171.105 89.4492C170.988 90.043 170.93 90.7656 170.93 91.6172V95.2266C170.93 95.9141 170.969 96.5195 171.047 97.043C171.125 97.5664 171.242 98.0156 171.398 98.3906C171.555 98.7578 171.742 99.0625 171.961 99.3047C172.188 99.5391 172.445 99.7109 172.734 99.8203C173.031 99.9297 173.355 99.9844 173.707 99.9844C174.152 99.9844 174.547 99.8984 174.891 99.7266C175.234 99.5547 175.523 99.2812 175.758 98.9062C175.992 98.5234 176.168 98.0273 176.285 97.418C176.402 96.8086 176.461 96.0781 176.461 95.2266ZM192.926 92.0391V94.8281C192.926 96.1641 192.793 97.3047 192.527 98.25C192.27 99.1875 191.895 99.9492 191.402 100.535C190.91 101.121 190.32 101.551 189.633 101.824C188.953 102.098 188.191 102.234 187.348 102.234C186.676 102.234 186.051 102.148 185.473 101.977C184.902 101.805 184.387 101.535 183.926 101.168C183.465 100.801 183.07 100.328 182.742 99.75C182.422 99.1641 182.172 98.4648 181.992 97.6523C181.82 96.8398 181.734 95.8984 181.734 94.8281V92.0391C181.734 90.6953 181.867 89.5625 182.133 88.6406C182.398 87.7109 182.777 86.957 183.27 86.3789C183.762 85.793 184.348 85.3672 185.027 85.1016C185.715 84.8359 186.48 84.7031 187.324 84.7031C188.004 84.7031 188.629 84.7891 189.199 84.9609C189.777 85.125 190.293 85.3867 190.746 85.7461C191.207 86.1055 191.598 86.5742 191.918 87.1523C192.246 87.7227 192.496 88.4141 192.668 89.2266C192.84 90.0312 192.926 90.9688 192.926 92.0391ZM190.102 95.2266V91.6172C190.102 90.9375 190.062 90.3398 189.984 89.8242C189.906 89.3008 189.789 88.8594 189.633 88.5C189.484 88.1328 189.297 87.8359 189.07 87.6094C188.844 87.375 188.586 87.207 188.297 87.1055C188.008 86.9961 187.684 86.9414 187.324 86.9414C186.887 86.9414 186.496 87.0273 186.152 87.1992C185.809 87.3633 185.52 87.6289 185.285 87.9961C185.051 88.3633 184.871 88.8477 184.746 89.4492C184.629 90.043 184.57 90.7656 184.57 91.6172V95.2266C184.57 95.9141 184.609 96.5195 184.688 97.043C184.766 97.5664 184.883 98.0156 185.039 98.3906C185.195 98.7578 185.383 99.0625 185.602 99.3047C185.828 99.5391 186.086 99.7109 186.375 99.8203C186.672 99.9297 186.996 99.9844 187.348 99.9844C187.793 99.9844 188.188 99.8984 188.531 99.7266C188.875 99.5547 189.164 99.2812 189.398 98.9062C189.633 98.5234 189.809 98.0273 189.926 97.418C190.043 96.8086 190.102 96.0781 190.102 95.2266ZM206.566 92.0391V94.8281C206.566 96.1641 206.434 97.3047 206.168 98.25C205.91 99.1875 205.535 99.9492 205.043 100.535C204.551 101.121 203.961 101.551 203.273 101.824C202.594 102.098 201.832 102.234 200.988 102.234C200.316 102.234 199.691 102.148 199.113 101.977C198.543 101.805 198.027 101.535 197.566 101.168C197.105 100.801 196.711 100.328 196.383 99.75C196.062 99.1641 195.812 98.4648 195.633 97.6523C195.461 96.8398 195.375 95.8984 195.375 94.8281V92.0391C195.375 90.6953 195.508 89.5625 195.773 88.6406C196.039 87.7109 196.418 86.957 196.91 86.3789C197.402 85.793 197.988 85.3672 198.668 85.1016C199.355 84.8359 200.121 84.7031 200.965 84.7031C201.645 84.7031 202.27 84.7891 202.84 84.9609C203.418 85.125 203.934 85.3867 204.387 85.7461C204.848 86.1055 205.238 86.5742 205.559 87.1523C205.887 87.7227 206.137 88.4141 206.309 89.2266C206.48 90.0312 206.566 90.9688 206.566 92.0391ZM203.742 95.2266V91.6172C203.742 90.9375 203.703 90.3398 203.625 89.8242C203.547 89.3008 203.43 88.8594 203.273 88.5C203.125 88.1328 202.938 87.8359 202.711 87.6094C202.484 87.375 202.227 87.207 201.938 87.1055C201.648 86.9961 201.324 86.9414 200.965 86.9414C200.527 86.9414 200.137 87.0273 199.793 87.1992C199.449 87.3633 199.16 87.6289 198.926 87.9961C198.691 88.3633 198.512 88.8477 198.387 89.4492C198.27 90.043 198.211 90.7656 198.211 91.6172V95.2266C198.211 95.9141 198.25 96.5195 198.328 97.043C198.406 97.5664 198.523 98.0156 198.68 98.3906C198.836 98.7578 199.023 99.0625 199.242 99.3047C199.469 99.5391 199.727 99.7109 200.016 99.8203C200.312 99.9297 200.637 99.9844 200.988 99.9844C201.434 99.9844 201.828 99.8984 202.172 99.7266C202.516 99.5547 202.805 99.2812 203.039 98.9062C203.273 98.5234 203.449 98.0273 203.566 97.418C203.684 96.8086 203.742 96.0781 203.742 95.2266Z" fill="#07020D"/>
<path d="M503.93 4.9375V22H501.012V4.9375H503.93ZM509.285 4.9375V7.28125H495.703V4.9375H509.285ZM516.832 19.457V13.4102C516.832 12.957 516.75 12.5664 516.586 12.2383C516.422 11.9102 516.172 11.6562 515.836 11.4766C515.508 11.2969 515.094 11.207 514.594 11.207C514.133 11.207 513.734 11.2852 513.398 11.4414C513.062 11.5977 512.801 11.8086 512.613 12.0742C512.426 12.3398 512.332 12.6406 512.332 12.9766H509.52C509.52 12.4766 509.641 11.9922 509.883 11.5234C510.125 11.0547 510.477 10.6367 510.938 10.2695C511.398 9.90234 511.949 9.61328 512.59 9.40234C513.23 9.19141 513.949 9.08594 514.746 9.08594C515.699 9.08594 516.543 9.24609 517.277 9.56641C518.02 9.88672 518.602 10.3711 519.023 11.0195C519.453 11.6602 519.668 12.4648 519.668 13.4336V19.0703C519.668 19.6484 519.707 20.168 519.785 20.6289C519.871 21.082 519.992 21.4766 520.148 21.8125V22H517.254C517.121 21.6953 517.016 21.3086 516.938 20.8398C516.867 20.3633 516.832 19.9023 516.832 19.457ZM517.242 14.2891L517.266 16.0352H515.238C514.715 16.0352 514.254 16.0859 513.855 16.1875C513.457 16.2812 513.125 16.4219 512.859 16.6094C512.594 16.7969 512.395 17.0234 512.262 17.2891C512.129 17.5547 512.062 17.8555 512.062 18.1914C512.062 18.5273 512.141 18.8359 512.297 19.1172C512.453 19.3906 512.68 19.6055 512.977 19.7617C513.281 19.918 513.648 19.9961 514.078 19.9961C514.656 19.9961 515.16 19.8789 515.59 19.6445C516.027 19.4023 516.371 19.1094 516.621 18.7656C516.871 18.4141 517.004 18.082 517.02 17.7695L517.934 19.0234C517.84 19.3438 517.68 19.6875 517.453 20.0547C517.227 20.4219 516.93 20.7734 516.562 21.1094C516.203 21.4375 515.77 21.707 515.262 21.918C514.762 22.1289 514.184 22.2344 513.527 22.2344C512.699 22.2344 511.961 22.0703 511.312 21.7422C510.664 21.4062 510.156 20.957 509.789 20.3945C509.422 19.8242 509.238 19.1797 509.238 18.4609C509.238 17.7891 509.363 17.1953 509.613 16.6797C509.871 16.1562 510.246 15.7188 510.738 15.3672C511.238 15.0156 511.848 14.75 512.566 14.5703C513.285 14.3828 514.105 14.2891 515.027 14.2891H517.242ZM524.777 9.32031L527.191 13.5273L529.652 9.32031H532.758L528.914 15.543L532.91 22H529.805L527.227 17.6172L524.648 22H521.531L525.516 15.543L521.684 9.32031H524.777ZM541.84 19.457V13.4102C541.84 12.957 541.758 12.5664 541.594 12.2383C541.43 11.9102 541.18 11.6562 540.844 11.4766C540.516 11.2969 540.102 11.207 539.602 11.207C539.141 11.207 538.742 11.2852 538.406 11.4414C538.07 11.5977 537.809 11.8086 537.621 12.0742C537.434 12.3398 537.34 12.6406 537.34 12.9766H534.527C534.527 12.4766 534.648 11.9922 534.891 11.5234C535.133 11.0547 535.484 10.6367 535.945 10.2695C536.406 9.90234 536.957 9.61328 537.598 9.40234C538.238 9.19141 538.957 9.08594 539.754 9.08594C540.707 9.08594 541.551 9.24609 542.285 9.56641C543.027 9.88672 543.609 10.3711 544.031 11.0195C544.461 11.6602 544.676 12.4648 544.676 13.4336V19.0703C544.676 19.6484 544.715 20.168 544.793 20.6289C544.879 21.082 545 21.4766 545.156 21.8125V22H542.262C542.129 21.6953 542.023 21.3086 541.945 20.8398C541.875 20.3633 541.84 19.9023 541.84 19.457ZM542.25 14.2891L542.273 16.0352H540.246C539.723 16.0352 539.262 16.0859 538.863 16.1875C538.465 16.2812 538.133 16.4219 537.867 16.6094C537.602 16.7969 537.402 17.0234 537.27 17.2891C537.137 17.5547 537.07 17.8555 537.07 18.1914C537.07 18.5273 537.148 18.8359 537.305 19.1172C537.461 19.3906 537.688 19.6055 537.984 19.7617C538.289 19.918 538.656 19.9961 539.086 19.9961C539.664 19.9961 540.168 19.8789 540.598 19.6445C541.035 19.4023 541.379 19.1094 541.629 18.7656C541.879 18.4141 542.012 18.082 542.027 17.7695L542.941 19.0234C542.848 19.3438 542.688 19.6875 542.461 20.0547C542.234 20.4219 541.938 20.7734 541.57 21.1094C541.211 21.4375 540.777 21.707 540.27 21.918C539.77 22.1289 539.191 22.2344 538.535 22.2344C537.707 22.2344 536.969 22.0703 536.32 21.7422C535.672 21.4062 535.164 20.957 534.797 20.3945C534.43 19.8242 534.246 19.1797 534.246 18.4609C534.246 17.7891 534.371 17.1953 534.621 16.6797C534.879 16.1562 535.254 15.7188 535.746 15.3672C536.246 15.0156 536.855 14.75 537.574 14.5703C538.293 14.3828 539.113 14.2891 540.035 14.2891H542.25ZM547.641 4H550.465V19.293L550.195 22H547.641V4ZM558.738 15.543V15.7891C558.738 16.7266 558.633 17.5898 558.422 18.3789C558.219 19.1602 557.906 19.8398 557.484 20.418C557.07 20.9961 556.555 21.4453 555.938 21.7656C555.328 22.0781 554.621 22.2344 553.816 22.2344C553.027 22.2344 552.34 22.0859 551.754 21.7891C551.168 21.4922 550.676 21.0703 550.277 20.5234C549.887 19.9766 549.57 19.3242 549.328 18.5664C549.086 17.8086 548.914 16.9727 548.812 16.0586V15.2734C548.914 14.3516 549.086 13.5156 549.328 12.7656C549.57 12.0078 549.887 11.3555 550.277 10.8086C550.676 10.2539 551.164 9.82812 551.742 9.53125C552.328 9.23438 553.012 9.08594 553.793 9.08594C554.605 9.08594 555.32 9.24219 555.938 9.55469C556.562 9.86719 557.082 10.3125 557.496 10.8906C557.91 11.4609 558.219 12.1406 558.422 12.9297C558.633 13.7188 558.738 14.5898 558.738 15.543ZM555.914 15.7891V15.543C555.914 14.9727 555.867 14.4375 555.773 13.9375C555.68 13.4297 555.523 12.9844 555.305 12.6016C555.094 12.2188 554.805 11.918 554.438 11.6992C554.078 11.4727 553.629 11.3594 553.09 11.3594C552.59 11.3594 552.16 11.4453 551.801 11.6172C551.441 11.7891 551.141 12.0234 550.898 12.3203C550.656 12.6172 550.465 12.9609 550.324 13.3516C550.191 13.7422 550.102 14.1641 550.055 14.6172V16.7383C550.125 17.3242 550.273 17.8633 550.5 18.3555C550.734 18.8398 551.062 19.2305 551.484 19.5273C551.906 19.8164 552.449 19.9609 553.113 19.9609C553.637 19.9609 554.078 19.8555 554.438 19.6445C554.797 19.4336 555.082 19.1406 555.293 18.7656C555.512 18.3828 555.668 17.9375 555.762 17.4297C555.863 16.9219 555.914 16.375 555.914 15.7891ZM564.152 4V22H561.316V4H564.152ZM572.836 22.2344C571.898 22.2344 571.051 22.082 570.293 21.7773C569.543 21.4648 568.902 21.0312 568.371 20.4766C567.848 19.9219 567.445 19.2695 567.164 18.5195C566.883 17.7695 566.742 16.9609 566.742 16.0938V15.625C566.742 14.6328 566.887 13.7344 567.176 12.9297C567.465 12.125 567.867 11.4375 568.383 10.8672C568.898 10.2891 569.508 9.84766 570.211 9.54297C570.914 9.23828 571.676 9.08594 572.496 9.08594C573.402 9.08594 574.195 9.23828 574.875 9.54297C575.555 9.84766 576.117 10.2773 576.562 10.832C577.016 11.3789 577.352 12.0312 577.57 12.7891C577.797 13.5469 577.91 14.3828 577.91 15.2969V16.5039H568.113V14.4766H575.121V14.2539C575.105 13.7461 575.004 13.2695 574.816 12.8242C574.637 12.3789 574.359 12.0195 573.984 11.7461C573.609 11.4727 573.109 11.3359 572.484 11.3359C572.016 11.3359 571.598 11.4375 571.23 11.6406C570.871 11.8359 570.57 12.1211 570.328 12.4961C570.086 12.8711 569.898 13.3242 569.766 13.8555C569.641 14.3789 569.578 14.9688 569.578 15.625V16.0938C569.578 16.6484 569.652 17.1641 569.801 17.6406C569.957 18.1094 570.184 18.5195 570.48 18.8711C570.777 19.2227 571.137 19.5 571.559 19.7031C571.98 19.8984 572.461 19.9961 573 19.9961C573.68 19.9961 574.285 19.8594 574.816 19.5859C575.348 19.3125 575.809 18.9258 576.199 18.4258L577.688 19.8672C577.414 20.2656 577.059 20.6484 576.621 21.0156C576.184 21.375 575.648 21.668 575.016 21.8945C574.391 22.1211 573.664 22.2344 572.836 22.2344ZM589.512 4.9375V22H586.57V4.9375H589.512ZM595.688 12.0273V22H592.863V9.32031H595.523L595.688 12.0273ZM595.184 15.1914L594.27 15.1797C594.277 14.2812 594.402 13.457 594.645 12.707C594.895 11.957 595.238 11.3125 595.676 10.7734C596.121 10.2344 596.652 9.82031 597.27 9.53125C597.887 9.23438 598.574 9.08594 599.332 9.08594C599.941 9.08594 600.492 9.17188 600.984 9.34375C601.484 9.50781 601.91 9.77734 602.262 10.1523C602.621 10.5273 602.895 11.0156 603.082 11.6172C603.27 12.2109 603.363 12.9414 603.363 13.8086V22H600.527V13.7969C600.527 13.1875 600.438 12.707 600.258 12.3555C600.086 11.9961 599.832 11.7422 599.496 11.5938C599.168 11.4375 598.758 11.3594 598.266 11.3594C597.781 11.3594 597.348 11.4609 596.965 11.6641C596.582 11.8672 596.258 12.1445 595.992 12.4961C595.734 12.8477 595.535 13.2539 595.395 13.7148C595.254 14.1758 595.184 14.668 595.184 15.1914ZM611.426 19.9844C611.887 19.9844 612.301 19.8945 612.668 19.7148C613.043 19.5273 613.344 19.2695 613.57 18.9414C613.805 18.6133 613.934 18.2344 613.957 17.8047H616.617C616.602 18.625 616.359 19.3711 615.891 20.043C615.422 20.7148 614.801 21.25 614.027 21.6484C613.254 22.0391 612.398 22.2344 611.461 22.2344C610.492 22.2344 609.648 22.0703 608.93 21.7422C608.211 21.4062 607.613 20.9453 607.137 20.3594C606.66 19.7734 606.301 19.0977 606.059 18.332C605.824 17.5664 605.707 16.7461 605.707 15.8711V15.4609C605.707 14.5859 605.824 13.7656 606.059 13C606.301 12.2266 606.66 11.5469 607.137 10.9609C607.613 10.375 608.211 9.91797 608.93 9.58984C609.648 9.25391 610.488 9.08594 611.449 9.08594C612.465 9.08594 613.355 9.28906 614.121 9.69531C614.887 10.0938 615.488 10.6523 615.926 11.3711C616.371 12.082 616.602 12.9102 616.617 13.8555H613.957C613.934 13.3867 613.816 12.9648 613.605 12.5898C613.402 12.207 613.113 11.9023 612.738 11.6758C612.371 11.4492 611.93 11.3359 611.414 11.3359C610.844 11.3359 610.371 11.4531 609.996 11.6875C609.621 11.9141 609.328 12.2266 609.117 12.625C608.906 13.0156 608.754 13.457 608.66 13.9492C608.574 14.4336 608.531 14.9375 608.531 15.4609V15.8711C608.531 16.3945 608.574 16.9023 608.66 17.3945C608.746 17.8867 608.895 18.3281 609.105 18.7188C609.324 19.1016 609.621 19.4102 609.996 19.6445C610.371 19.8711 610.848 19.9844 611.426 19.9844ZM618.246 15.8008V15.5312C618.246 14.6172 618.379 13.7695 618.645 12.9883C618.91 12.1992 619.293 11.5156 619.793 10.9375C620.301 10.3516 620.918 9.89844 621.645 9.57812C622.379 9.25 623.207 9.08594 624.129 9.08594C625.059 9.08594 625.887 9.25 626.613 9.57812C627.348 9.89844 627.969 10.3516 628.477 10.9375C628.984 11.5156 629.371 12.1992 629.637 12.9883C629.902 13.7695 630.035 14.6172 630.035 15.5312V15.8008C630.035 16.7148 629.902 17.5625 629.637 18.3438C629.371 19.125 628.984 19.8086 628.477 20.3945C627.969 20.9727 627.352 21.4258 626.625 21.7539C625.898 22.0742 625.074 22.2344 624.152 22.2344C623.223 22.2344 622.391 22.0742 621.656 21.7539C620.93 21.4258 620.312 20.9727 619.805 20.3945C619.297 19.8086 618.91 19.125 618.645 18.3438C618.379 17.5625 618.246 16.7148 618.246 15.8008ZM621.07 15.5312V15.8008C621.07 16.3711 621.129 16.9102 621.246 17.418C621.363 17.9258 621.547 18.3711 621.797 18.7539C622.047 19.1367 622.367 19.4375 622.758 19.6562C623.148 19.875 623.613 19.9844 624.152 19.9844C624.676 19.9844 625.129 19.875 625.512 19.6562C625.902 19.4375 626.223 19.1367 626.473 18.7539C626.723 18.3711 626.906 17.9258 627.023 17.418C627.148 16.9102 627.211 16.3711 627.211 15.8008V15.5312C627.211 14.9688 627.148 14.4375 627.023 13.9375C626.906 13.4297 626.719 12.9805 626.461 12.5898C626.211 12.1992 625.891 11.8945 625.5 11.6758C625.117 11.4492 624.66 11.3359 624.129 11.3359C623.598 11.3359 623.137 11.4492 622.746 11.6758C622.363 11.8945 622.047 12.1992 621.797 12.5898C621.547 12.9805 621.363 13.4297 621.246 13.9375C621.129 14.4375 621.07 14.9688 621.07 15.5312ZM635.227 11.8984V22H632.402V9.32031H635.062L635.227 11.8984ZM634.77 15.1914L633.809 15.1797C633.809 14.3047 633.918 13.4961 634.137 12.7539C634.355 12.0117 634.676 11.3672 635.098 10.8203C635.52 10.2656 636.043 9.83984 636.668 9.54297C637.301 9.23828 638.031 9.08594 638.859 9.08594C639.438 9.08594 639.965 9.17188 640.441 9.34375C640.926 9.50781 641.344 9.76953 641.695 10.1289C642.055 10.4883 642.328 10.9492 642.516 11.5117C642.711 12.0742 642.809 12.7539 642.809 13.5508V22H639.984V13.7969C639.984 13.1797 639.891 12.6953 639.703 12.3438C639.523 11.9922 639.262 11.7422 638.918 11.5938C638.582 11.4375 638.18 11.3594 637.711 11.3594C637.18 11.3594 636.727 11.4609 636.352 11.6641C635.984 11.8672 635.684 12.1445 635.449 12.4961C635.215 12.8477 635.043 13.2539 634.934 13.7148C634.824 14.1758 634.77 14.668 634.77 15.1914ZM642.633 14.4414L641.309 14.7344C641.309 13.9688 641.414 13.2461 641.625 12.5664C641.844 11.8789 642.16 11.2773 642.574 10.7617C642.996 10.2383 643.516 9.82812 644.133 9.53125C644.75 9.23438 645.457 9.08594 646.254 9.08594C646.902 9.08594 647.48 9.17578 647.988 9.35547C648.504 9.52734 648.941 9.80078 649.301 10.1758C649.66 10.5508 649.934 11.0391 650.121 11.6406C650.309 12.2344 650.402 12.9531 650.402 13.7969V22H647.566V13.7852C647.566 13.1445 647.473 12.6484 647.285 12.2969C647.105 11.9453 646.848 11.7031 646.512 11.5703C646.176 11.4297 645.773 11.3594 645.305 11.3594C644.867 11.3594 644.48 11.4414 644.145 11.6055C643.816 11.7617 643.539 11.9844 643.312 12.2734C643.086 12.5547 642.914 12.8789 642.797 13.2461C642.688 13.6133 642.633 14.0117 642.633 14.4414ZM658.898 22.2344C657.961 22.2344 657.113 22.082 656.355 21.7773C655.605 21.4648 654.965 21.0312 654.434 20.4766C653.91 19.9219 653.508 19.2695 653.227 18.5195C652.945 17.7695 652.805 16.9609 652.805 16.0938V15.625C652.805 14.6328 652.949 13.7344 653.238 12.9297C653.527 12.125 653.93 11.4375 654.445 10.8672C654.961 10.2891 655.57 9.84766 656.273 9.54297C656.977 9.23828 657.738 9.08594 658.559 9.08594C659.465 9.08594 660.258 9.23828 660.938 9.54297C661.617 9.84766 662.18 10.2773 662.625 10.832C663.078 11.3789 663.414 12.0312 663.633 12.7891C663.859 13.5469 663.973 14.3828 663.973 15.2969V16.5039H654.176V14.4766H661.184V14.2539C661.168 13.7461 661.066 13.2695 660.879 12.8242C660.699 12.3789 660.422 12.0195 660.047 11.7461C659.672 11.4727 659.172 11.3359 658.547 11.3359C658.078 11.3359 657.66 11.4375 657.293 11.6406C656.934 11.8359 656.633 12.1211 656.391 12.4961C656.148 12.8711 655.961 13.3242 655.828 13.8555C655.703 14.3789 655.641 14.9688 655.641 15.625V16.0938C655.641 16.6484 655.715 17.1641 655.863 17.6406C656.02 18.1094 656.246 18.5195 656.543 18.8711C656.84 19.2227 657.199 19.5 657.621 19.7031C658.043 19.8984 658.523 19.9961 659.062 19.9961C659.742 19.9961 660.348 19.8594 660.879 19.5859C661.41 19.3125 661.871 18.9258 662.262 18.4258L663.75 19.8672C663.477 20.2656 663.121 20.6484 662.684 21.0156C662.246 21.375 661.711 21.668 661.078 21.8945C660.453 22.1211 659.727 22.2344 658.898 22.2344ZM666.211 20.5938C666.211 20.1562 666.359 19.7891 666.656 19.4922C666.953 19.1875 667.355 19.0352 667.863 19.0352C668.379 19.0352 668.781 19.1875 669.07 19.4922C669.367 19.7891 669.516 20.1562 669.516 20.5938C669.516 21.0312 669.367 21.3984 669.07 21.6953C668.781 21.9922 668.379 22.1406 667.863 22.1406C667.355 22.1406 666.953 21.9922 666.656 21.6953C666.359 21.3984 666.211 21.0312 666.211 20.5938ZM666.223 10.6094C666.223 10.1719 666.371 9.80469 666.668 9.50781C666.965 9.20312 667.367 9.05078 667.875 9.05078C668.391 9.05078 668.793 9.20312 669.082 9.50781C669.379 9.80469 669.527 10.1719 669.527 10.6094C669.527 11.0469 669.379 11.4141 669.082 11.7109C668.793 12.0078 668.391 12.1562 667.875 12.1562C667.367 12.1562 666.965 12.0078 666.668 11.7109C666.371 11.4141 666.223 11.0469 666.223 10.6094ZM685.102 2.20703V5.71094H683.297V2.20703H685.102ZM684.879 21.3438V24.4844H683.086V21.3438H684.879ZM686.648 17.5586C686.648 17.1055 686.555 16.7109 686.367 16.375C686.188 16.0312 685.891 15.7227 685.477 15.4492C685.062 15.168 684.508 14.9062 683.812 14.6641C682.812 14.3125 681.938 13.918 681.188 13.4805C680.445 13.0352 679.867 12.4883 679.453 11.8398C679.047 11.1836 678.844 10.3672 678.844 9.39062C678.844 8.42969 679.062 7.59766 679.5 6.89453C679.945 6.19141 680.562 5.64844 681.352 5.26562C682.141 4.88281 683.062 4.69141 684.117 4.69141C684.93 4.69141 685.66 4.8125 686.309 5.05469C686.965 5.29688 687.523 5.65234 687.984 6.12109C688.445 6.58984 688.797 7.16797 689.039 7.85547C689.289 8.53516 689.414 9.31641 689.414 10.1992H686.602C686.602 9.69922 686.543 9.25391 686.426 8.86328C686.316 8.46484 686.152 8.12891 685.934 7.85547C685.715 7.57422 685.449 7.35938 685.137 7.21094C684.832 7.0625 684.484 6.98828 684.094 6.98828C683.539 6.98828 683.082 7.09375 682.723 7.30469C682.363 7.50781 682.098 7.78906 681.926 8.14844C681.762 8.50781 681.68 8.91797 681.68 9.37891C681.68 9.82422 681.766 10.2148 681.938 10.5508C682.109 10.8867 682.402 11.1914 682.816 11.4648C683.238 11.7305 683.816 12 684.551 12.2734C685.559 12.6328 686.43 13.0352 687.164 13.4805C687.906 13.918 688.477 14.4609 688.875 15.1094C689.281 15.75 689.484 16.5586 689.484 17.5352C689.484 18.543 689.25 19.3984 688.781 20.1016C688.32 20.8047 687.672 21.3398 686.836 21.707C686.008 22.0664 685.043 22.2461 683.941 22.2461C683.246 22.2461 682.555 22.1562 681.867 21.9766C681.188 21.7891 680.57 21.4844 680.016 21.0625C679.461 20.6406 679.02 20.082 678.691 19.3867C678.363 18.6836 678.199 17.8242 678.199 16.8086H681.035C681.035 17.418 681.117 17.9258 681.281 18.332C681.445 18.7383 681.668 19.0586 681.949 19.293C682.23 19.5273 682.543 19.6953 682.887 19.7969C683.238 19.8984 683.59 19.9492 683.941 19.9492C684.527 19.9492 685.02 19.8516 685.418 19.6562C685.824 19.4531 686.129 19.1719 686.332 18.8125C686.543 18.4453 686.648 18.0273 686.648 17.5586ZM706.465 4.83203H706.816V7.14062H706.617C705.609 7.14062 704.738 7.29687 704.004 7.60938C703.277 7.92188 702.68 8.35156 702.211 8.89844C701.742 9.44531 701.391 10.0859 701.156 10.8203C700.93 11.5469 700.816 12.3203 700.816 13.1406V15.8242C700.816 16.5039 700.891 17.1055 701.039 17.6289C701.188 18.1445 701.395 18.5781 701.66 18.9297C701.934 19.2734 702.246 19.5352 702.598 19.7148C702.949 19.8945 703.328 19.9844 703.734 19.9844C704.156 19.9844 704.539 19.8984 704.883 19.7266C705.227 19.5469 705.52 19.3008 705.762 18.9883C706.004 18.6758 706.188 18.3047 706.312 17.875C706.438 17.4453 706.5 16.9766 706.5 16.4688C706.5 15.9844 706.438 15.5312 706.312 15.1094C706.195 14.6797 706.02 14.3047 705.785 13.9844C705.551 13.6562 705.258 13.4023 704.906 13.2227C704.562 13.0352 704.164 12.9414 703.711 12.9414C703.148 12.9414 702.637 13.0742 702.176 13.3398C701.723 13.6055 701.355 13.9531 701.074 14.3828C700.801 14.8047 700.652 15.2539 700.629 15.7305L699.551 15.3789C699.613 14.6523 699.773 14 700.031 13.4219C700.297 12.8438 700.645 12.3516 701.074 11.9453C701.504 11.5391 702 11.2305 702.562 11.0195C703.133 10.8008 703.758 10.6914 704.438 10.6914C705.266 10.6914 705.984 10.8477 706.594 11.1602C707.203 11.4727 707.707 11.8984 708.105 12.4375C708.512 12.9688 708.812 13.5781 709.008 14.2656C709.211 14.9453 709.312 15.6562 709.312 16.3984C709.312 17.2188 709.188 17.9844 708.938 18.6953C708.688 19.3984 708.32 20.0156 707.836 20.5469C707.359 21.0781 706.777 21.4922 706.09 21.7891C705.41 22.0859 704.637 22.2344 703.77 22.2344C702.855 22.2344 702.039 22.0586 701.32 21.707C700.609 21.3555 700.004 20.8711 699.504 20.2539C699.012 19.6367 698.637 18.9258 698.379 18.1211C698.121 17.3164 697.992 16.4648 697.992 15.5664V14.3945C697.992 13.0977 698.156 11.875 698.484 10.7266C698.812 9.57031 699.316 8.55078 699.996 7.66797C700.684 6.78516 701.562 6.09375 702.633 5.59375C703.703 5.08594 704.98 4.83203 706.465 4.83203ZM722.695 12.0391V14.8281C722.695 16.1641 722.562 17.3047 722.297 18.25C722.039 19.1875 721.664 19.9492 721.172 20.5352C720.68 21.1211 720.09 21.5508 719.402 21.8242C718.723 22.0977 717.961 22.2344 717.117 22.2344C716.445 22.2344 715.82 22.1484 715.242 21.9766C714.672 21.8047 714.156 21.5352 713.695 21.168C713.234 20.8008 712.84 20.3281 712.512 19.75C712.191 19.1641 711.941 18.4648 711.762 17.6523C711.59 16.8398 711.504 15.8984 711.504 14.8281V12.0391C711.504 10.6953 711.637 9.5625 711.902 8.64062C712.168 7.71094 712.547 6.95703 713.039 6.37891C713.531 5.79297 714.117 5.36719 714.797 5.10156C715.484 4.83594 716.25 4.70312 717.094 4.70312C717.773 4.70312 718.398 4.78906 718.969 4.96094C719.547 5.125 720.062 5.38672 720.516 5.74609C720.977 6.10547 721.367 6.57422 721.688 7.15234C722.016 7.72266 722.266 8.41406 722.438 9.22656C722.609 10.0312 722.695 10.9688 722.695 12.0391ZM719.871 15.2266V11.6172C719.871 10.9375 719.832 10.3398 719.754 9.82422C719.676 9.30078 719.559 8.85938 719.402 8.5C719.254 8.13281 719.066 7.83594 718.84 7.60938C718.613 7.375 718.355 7.20703 718.066 7.10547C717.777 6.99609 717.453 6.94141 717.094 6.94141C716.656 6.94141 716.266 7.02734 715.922 7.19922C715.578 7.36328 715.289 7.62891 715.055 7.99609C714.82 8.36328 714.641 8.84766 714.516 9.44922C714.398 10.043 714.34 10.7656 714.34 11.6172V15.2266C714.34 15.9141 714.379 16.5195 714.457 17.043C714.535 17.5664 714.652 18.0156 714.809 18.3906C714.965 18.7578 715.152 19.0625 715.371 19.3047C715.598 19.5391 715.855 19.7109 716.145 19.8203C716.441 19.9297 716.766 19.9844 717.117 19.9844C717.562 19.9844 717.957 19.8984 718.301 19.7266C718.645 19.5547 718.934 19.2812 719.168 18.9062C719.402 18.5234 719.578 18.0273 719.695 17.418C719.812 16.8086 719.871 16.0781 719.871 15.2266ZM742.312 12.0391V14.8281C742.312 16.1641 742.18 17.3047 741.914 18.25C741.656 19.1875 741.281 19.9492 740.789 20.5352C740.297 21.1211 739.707 21.5508 739.02 21.8242C738.34 22.0977 737.578 22.2344 736.734 22.2344C736.062 22.2344 735.438 22.1484 734.859 21.9766C734.289 21.8047 733.773 21.5352 733.312 21.168C732.852 20.8008 732.457 20.3281 732.129 19.75C731.809 19.1641 731.559 18.4648 731.379 17.6523C731.207 16.8398 731.121 15.8984 731.121 14.8281V12.0391C731.121 10.6953 731.254 9.5625 731.52 8.64062C731.785 7.71094 732.164 6.95703 732.656 6.37891C733.148 5.79297 733.734 5.36719 734.414 5.10156C735.102 4.83594 735.867 4.70312 736.711 4.70312C737.391 4.70312 738.016 4.78906 738.586 4.96094C739.164 5.125 739.68 5.38672 740.133 5.74609C740.594 6.10547 740.984 6.57422 741.305 7.15234C741.633 7.72266 741.883 8.41406 742.055 9.22656C742.227 10.0312 742.312 10.9688 742.312 12.0391ZM739.488 15.2266V11.6172C739.488 10.9375 739.449 10.3398 739.371 9.82422C739.293 9.30078 739.176 8.85938 739.02 8.5C738.871 8.13281 738.684 7.83594 738.457 7.60938C738.23 7.375 737.973 7.20703 737.684 7.10547C737.395 6.99609 737.07 6.94141 736.711 6.94141C736.273 6.94141 735.883 7.02734 735.539 7.19922C735.195 7.36328 734.906 7.62891 734.672 7.99609C734.438 8.36328 734.258 8.84766 734.133 9.44922C734.016 10.043 733.957 10.7656 733.957 11.6172V15.2266C733.957 15.9141 733.996 16.5195 734.074 17.043C734.152 17.5664 734.27 18.0156 734.426 18.3906C734.582 18.7578 734.77 19.0625 734.988 19.3047C735.215 19.5391 735.473 19.7109 735.762 19.8203C736.059 19.9297 736.383 19.9844 736.734 19.9844C737.18 19.9844 737.574 19.8984 737.918 19.7266C738.262 19.5547 738.551 19.2812 738.785 18.9062C739.02 18.5234 739.195 18.0273 739.312 17.418C739.43 16.8086 739.488 16.0781 739.488 15.2266ZM755.953 12.0391V14.8281C755.953 16.1641 755.82 17.3047 755.555 18.25C755.297 19.1875 754.922 19.9492 754.43 20.5352C753.938 21.1211 753.348 21.5508 752.66 21.8242C751.98 22.0977 751.219 22.2344 750.375 22.2344C749.703 22.2344 749.078 22.1484 748.5 21.9766C747.93 21.8047 747.414 21.5352 746.953 21.168C746.492 20.8008 746.098 20.3281 745.77 19.75C745.449 19.1641 745.199 18.4648 745.02 17.6523C744.848 16.8398 744.762 15.8984 744.762 14.8281V12.0391C744.762 10.6953 744.895 9.5625 745.16 8.64062C745.426 7.71094 745.805 6.95703 746.297 6.37891C746.789 5.79297 747.375 5.36719 748.055 5.10156C748.742 4.83594 749.508 4.70312 750.352 4.70312C751.031 4.70312 751.656 4.78906 752.227 4.96094C752.805 5.125 753.32 5.38672 753.773 5.74609C754.234 6.10547 754.625 6.57422 754.945 7.15234C755.273 7.72266 755.523 8.41406 755.695 9.22656C755.867 10.0312 755.953 10.9688 755.953 12.0391ZM753.129 15.2266V11.6172C753.129 10.9375 753.09 10.3398 753.012 9.82422C752.934 9.30078 752.816 8.85938 752.66 8.5C752.512 8.13281 752.324 7.83594 752.098 7.60938C751.871 7.375 751.613 7.20703 751.324 7.10547C751.035 6.99609 750.711 6.94141 750.352 6.94141C749.914 6.94141 749.523 7.02734 749.18 7.19922C748.836 7.36328 748.547 7.62891 748.312 7.99609C748.078 8.36328 747.898 8.84766 747.773 9.44922C747.656 10.043 747.598 10.7656 747.598 11.6172V15.2266C747.598 15.9141 747.637 16.5195 747.715 17.043C747.793 17.5664 747.91 18.0156 748.066 18.3906C748.223 18.7578 748.41 19.0625 748.629 19.3047C748.855 19.5391 749.113 19.7109 749.402 19.8203C749.699 19.9297 750.023 19.9844 750.375 19.9844C750.82 19.9844 751.215 19.8984 751.559 19.7266C751.902 19.5547 752.191 19.2812 752.426 18.9062C752.66 18.5234 752.836 18.0273 752.953 17.418C753.07 16.8086 753.129 16.0781 753.129 15.2266ZM769.594 12.0391V14.8281C769.594 16.1641 769.461 17.3047 769.195 18.25C768.938 19.1875 768.562 19.9492 768.07 20.5352C767.578 21.1211 766.988 21.5508 766.301 21.8242C765.621 22.0977 764.859 22.2344 764.016 22.2344C763.344 22.2344 762.719 22.1484 762.141 21.9766C761.57 21.8047 761.055 21.5352 760.594 21.168C760.133 20.8008 759.738 20.3281 759.41 19.75C759.09 19.1641 758.84 18.4648 758.66 17.6523C758.488 16.8398 758.402 15.8984 758.402 14.8281V12.0391C758.402 10.6953 758.535 9.5625 758.801 8.64062C759.066 7.71094 759.445 6.95703 759.938 6.37891C760.43 5.79297 761.016 5.36719 761.695 5.10156C762.383 4.83594 763.148 4.70312 763.992 4.70312C764.672 4.70312 765.297 4.78906 765.867 4.96094C766.445 5.125 766.961 5.38672 767.414 5.74609C767.875 6.10547 768.266 6.57422 768.586 7.15234C768.914 7.72266 769.164 8.41406 769.336 9.22656C769.508 10.0312 769.594 10.9688 769.594 12.0391ZM766.77 15.2266V11.6172C766.77 10.9375 766.73 10.3398 766.652 9.82422C766.574 9.30078 766.457 8.85938 766.301 8.5C766.152 8.13281 765.965 7.83594 765.738 7.60938C765.512 7.375 765.254 7.20703 764.965 7.10547C764.676 6.99609 764.352 6.94141 763.992 6.94141C763.555 6.94141 763.164 7.02734 762.82 7.19922C762.477 7.36328 762.188 7.62891 761.953 7.99609C761.719 8.36328 761.539 8.84766 761.414 9.44922C761.297 10.043 761.238 10.7656 761.238 11.6172V15.2266C761.238 15.9141 761.277 16.5195 761.355 17.043C761.434 17.5664 761.551 18.0156 761.707 18.3906C761.863 18.7578 762.051 19.0625 762.27 19.3047C762.496 19.5391 762.754 19.7109 763.043 19.8203C763.34 19.9297 763.664 19.9844 764.016 19.9844C764.461 19.9844 764.855 19.8984 765.199 19.7266C765.543 19.5547 765.832 19.2812 766.066 18.9062C766.301 18.5234 766.477 18.0273 766.594 17.418C766.711 16.8086 766.77 16.0781 766.77 15.2266Z" fill="#07020D"/>
<line x1="1161" y1="375" x2="1161" y2="175" stroke="#07020D" stroke-width="2" stroke-dasharray="12 12"/>
<path d="M1176.28 82.207V85.7109H1174.47V82.207H1176.28ZM1176.05 101.344V104.484H1174.26V101.344H1176.05ZM1177.82 97.5586C1177.82 97.1055 1177.73 96.7109 1177.54 96.375C1177.36 96.0312 1177.07 95.7227 1176.65 95.4492C1176.24 95.168 1175.68 94.9062 1174.99 94.6641C1173.99 94.3125 1173.11 93.918 1172.36 93.4805C1171.62 93.0352 1171.04 92.4883 1170.63 91.8398C1170.22 91.1836 1170.02 90.3672 1170.02 89.3906C1170.02 88.4297 1170.24 87.5977 1170.68 86.8945C1171.12 86.1914 1171.74 85.6484 1172.53 85.2656C1173.32 84.8828 1174.24 84.6914 1175.29 84.6914C1176.11 84.6914 1176.84 84.8125 1177.48 85.0547C1178.14 85.2969 1178.7 85.6523 1179.16 86.1211C1179.62 86.5898 1179.97 87.168 1180.21 87.8555C1180.46 88.5352 1180.59 89.3164 1180.59 90.1992H1177.78C1177.78 89.6992 1177.72 89.2539 1177.6 88.8633C1177.49 88.4648 1177.33 88.1289 1177.11 87.8555C1176.89 87.5742 1176.62 87.3594 1176.31 87.2109C1176.01 87.0625 1175.66 86.9883 1175.27 86.9883C1174.71 86.9883 1174.26 87.0938 1173.9 87.3047C1173.54 87.5078 1173.27 87.7891 1173.1 88.1484C1172.94 88.5078 1172.86 88.918 1172.86 89.3789C1172.86 89.8242 1172.94 90.2148 1173.11 90.5508C1173.29 90.8867 1173.58 91.1914 1173.99 91.4648C1174.41 91.7305 1174.99 92 1175.73 92.2734C1176.73 92.6328 1177.61 93.0352 1178.34 93.4805C1179.08 93.918 1179.65 94.4609 1180.05 95.1094C1180.46 95.75 1180.66 96.5586 1180.66 97.5352C1180.66 98.543 1180.43 99.3984 1179.96 100.102C1179.5 100.805 1178.85 101.34 1178.01 101.707C1177.18 102.066 1176.22 102.246 1175.12 102.246C1174.42 102.246 1173.73 102.156 1173.04 101.977C1172.36 101.789 1171.75 101.484 1171.19 101.062C1170.64 100.641 1170.2 100.082 1169.87 99.3867C1169.54 98.6836 1169.38 97.8242 1169.38 96.8086H1172.21C1172.21 97.418 1172.29 97.9258 1172.46 98.332C1172.62 98.7383 1172.84 99.0586 1173.12 99.293C1173.41 99.5273 1173.72 99.6953 1174.06 99.7969C1174.41 99.8984 1174.77 99.9492 1175.12 99.9492C1175.7 99.9492 1176.2 99.8516 1176.59 99.6562C1177 99.4531 1177.3 99.1719 1177.51 98.8125C1177.72 98.4453 1177.82 98.0273 1177.82 97.5586ZM1197.64 84.832H1197.99V87.1406H1197.79C1196.79 87.1406 1195.91 87.2969 1195.18 87.6094C1194.45 87.9219 1193.86 88.3516 1193.39 88.8984C1192.92 89.4453 1192.57 90.0859 1192.33 90.8203C1192.11 91.5469 1191.99 92.3203 1191.99 93.1406V95.8242C1191.99 96.5039 1192.07 97.1055 1192.21 97.6289C1192.36 98.1445 1192.57 98.5781 1192.84 98.9297C1193.11 99.2734 1193.42 99.5352 1193.77 99.7148C1194.12 99.8945 1194.5 99.9844 1194.91 99.9844C1195.33 99.9844 1195.71 99.8984 1196.06 99.7266C1196.4 99.5469 1196.7 99.3008 1196.94 98.9883C1197.18 98.6758 1197.36 98.3047 1197.49 97.875C1197.61 97.4453 1197.68 96.9766 1197.68 96.4688C1197.68 95.9844 1197.61 95.5312 1197.49 95.1094C1197.37 94.6797 1197.2 94.3047 1196.96 93.9844C1196.73 93.6562 1196.43 93.4023 1196.08 93.2227C1195.74 93.0352 1195.34 92.9414 1194.89 92.9414C1194.32 92.9414 1193.81 93.0742 1193.35 93.3398C1192.9 93.6055 1192.53 93.9531 1192.25 94.3828C1191.98 94.8047 1191.83 95.2539 1191.8 95.7305L1190.73 95.3789C1190.79 94.6523 1190.95 94 1191.21 93.4219C1191.47 92.8438 1191.82 92.3516 1192.25 91.9453C1192.68 91.5391 1193.18 91.2305 1193.74 91.0195C1194.31 90.8008 1194.93 90.6914 1195.61 90.6914C1196.44 90.6914 1197.16 90.8477 1197.77 91.1602C1198.38 91.4727 1198.88 91.8984 1199.28 92.4375C1199.69 92.9688 1199.99 93.5781 1200.18 94.2656C1200.39 94.9453 1200.49 95.6562 1200.49 96.3984C1200.49 97.2188 1200.36 97.9844 1200.11 98.6953C1199.86 99.3984 1199.5 100.016 1199.01 100.547C1198.54 101.078 1197.95 101.492 1197.27 101.789C1196.59 102.086 1195.81 102.234 1194.95 102.234C1194.03 102.234 1193.21 102.059 1192.5 101.707C1191.79 101.355 1191.18 100.871 1190.68 100.254C1190.19 99.6367 1189.81 98.9258 1189.55 98.1211C1189.3 97.3164 1189.17 96.4648 1189.17 95.5664V94.3945C1189.17 93.0977 1189.33 91.875 1189.66 90.7266C1189.99 89.5703 1190.49 88.5508 1191.17 87.668C1191.86 86.7852 1192.74 86.0938 1193.81 85.5938C1194.88 85.0859 1196.16 84.832 1197.64 84.832ZM1213.87 92.0391V94.8281C1213.87 96.1641 1213.74 97.3047 1213.47 98.25C1213.21 99.1875 1212.84 99.9492 1212.35 100.535C1211.86 101.121 1211.27 101.551 1210.58 101.824C1209.9 102.098 1209.14 102.234 1208.29 102.234C1207.62 102.234 1207 102.148 1206.42 101.977C1205.85 101.805 1205.33 101.535 1204.87 101.168C1204.41 100.801 1204.02 100.328 1203.69 99.75C1203.37 99.1641 1203.12 98.4648 1202.94 97.6523C1202.77 96.8398 1202.68 95.8984 1202.68 94.8281V92.0391C1202.68 90.6953 1202.81 89.5625 1203.08 88.6406C1203.34 87.7109 1203.72 86.957 1204.21 86.3789C1204.71 85.793 1205.29 85.3672 1205.97 85.1016C1206.66 84.8359 1207.43 84.7031 1208.27 84.7031C1208.95 84.7031 1209.57 84.7891 1210.14 84.9609C1210.72 85.125 1211.24 85.3867 1211.69 85.7461C1212.15 86.1055 1212.54 86.5742 1212.86 87.1523C1213.19 87.7227 1213.44 88.4141 1213.61 89.2266C1213.79 90.0312 1213.87 90.9688 1213.87 92.0391ZM1211.05 95.2266V91.6172C1211.05 90.9375 1211.01 90.3398 1210.93 89.8242C1210.85 89.3008 1210.73 88.8594 1210.58 88.5C1210.43 88.1328 1210.24 87.8359 1210.02 87.6094C1209.79 87.375 1209.53 87.207 1209.24 87.1055C1208.95 86.9961 1208.63 86.9414 1208.27 86.9414C1207.83 86.9414 1207.44 87.0273 1207.1 87.1992C1206.75 87.3633 1206.46 87.6289 1206.23 87.9961C1206 88.3633 1205.82 88.8477 1205.69 89.4492C1205.57 90.043 1205.52 90.7656 1205.52 91.6172V95.2266C1205.52 95.9141 1205.55 96.5195 1205.63 97.043C1205.71 97.5664 1205.83 98.0156 1205.98 98.3906C1206.14 98.7578 1206.33 99.0625 1206.55 99.3047C1206.77 99.5391 1207.03 99.7109 1207.32 99.8203C1207.62 99.9297 1207.94 99.9844 1208.29 99.9844C1208.74 99.9844 1209.13 99.8984 1209.48 99.7266C1209.82 99.5547 1210.11 99.2812 1210.34 98.9062C1210.58 98.5234 1210.75 98.0273 1210.87 97.418C1210.99 96.8086 1211.05 96.0781 1211.05 95.2266ZM1233.49 92.0391V94.8281C1233.49 96.1641 1233.36 97.3047 1233.09 98.25C1232.83 99.1875 1232.46 99.9492 1231.96 100.535C1231.47 101.121 1230.88 101.551 1230.2 101.824C1229.52 102.098 1228.75 102.234 1227.91 102.234C1227.24 102.234 1226.61 102.148 1226.04 101.977C1225.46 101.805 1224.95 101.535 1224.49 101.168C1224.03 100.801 1223.63 100.328 1223.3 99.75C1222.98 99.1641 1222.73 98.4648 1222.55 97.6523C1222.38 96.8398 1222.3 95.8984 1222.3 94.8281V92.0391C1222.3 90.6953 1222.43 89.5625 1222.7 88.6406C1222.96 87.7109 1223.34 86.957 1223.83 86.3789C1224.32 85.793 1224.91 85.3672 1225.59 85.1016C1226.28 84.8359 1227.04 84.7031 1227.89 84.7031C1228.57 84.7031 1229.19 84.7891 1229.76 84.9609C1230.34 85.125 1230.86 85.3867 1231.31 85.7461C1231.77 86.1055 1232.16 86.5742 1232.48 87.1523C1232.81 87.7227 1233.06 88.4141 1233.23 89.2266C1233.4 90.0312 1233.49 90.9688 1233.49 92.0391ZM1230.66 95.2266V91.6172C1230.66 90.9375 1230.62 90.3398 1230.55 89.8242C1230.47 89.3008 1230.35 88.8594 1230.2 88.5C1230.05 88.1328 1229.86 87.8359 1229.63 87.6094C1229.41 87.375 1229.15 87.207 1228.86 87.1055C1228.57 86.9961 1228.25 86.9414 1227.89 86.9414C1227.45 86.9414 1227.06 87.0273 1226.71 87.1992C1226.37 87.3633 1226.08 87.6289 1225.85 87.9961C1225.61 88.3633 1225.43 88.8477 1225.31 89.4492C1225.19 90.043 1225.13 90.7656 1225.13 91.6172V95.2266C1225.13 95.9141 1225.17 96.5195 1225.25 97.043C1225.33 97.5664 1225.45 98.0156 1225.6 98.3906C1225.76 98.7578 1225.95 99.0625 1226.16 99.3047C1226.39 99.5391 1226.65 99.7109 1226.94 99.8203C1227.23 99.9297 1227.56 99.9844 1227.91 99.9844C1228.36 99.9844 1228.75 99.8984 1229.09 99.7266C1229.44 99.5547 1229.73 99.2812 1229.96 98.9062C1230.2 98.5234 1230.37 98.0273 1230.49 97.418C1230.61 96.8086 1230.66 96.0781 1230.66 95.2266ZM1247.13 92.0391V94.8281C1247.13 96.1641 1247 97.3047 1246.73 98.25C1246.47 99.1875 1246.1 99.9492 1245.61 100.535C1245.11 101.121 1244.52 101.551 1243.84 101.824C1243.16 102.098 1242.39 102.234 1241.55 102.234C1240.88 102.234 1240.25 102.148 1239.68 101.977C1239.11 101.805 1238.59 101.535 1238.13 101.168C1237.67 100.801 1237.27 100.328 1236.95 99.75C1236.62 99.1641 1236.38 98.4648 1236.2 97.6523C1236.02 96.8398 1235.94 95.8984 1235.94 94.8281V92.0391C1235.94 90.6953 1236.07 89.5625 1236.34 88.6406C1236.6 87.7109 1236.98 86.957 1237.47 86.3789C1237.96 85.793 1238.55 85.3672 1239.23 85.1016C1239.92 84.8359 1240.68 84.7031 1241.53 84.7031C1242.21 84.7031 1242.83 84.7891 1243.4 84.9609C1243.98 85.125 1244.5 85.3867 1244.95 85.7461C1245.41 86.1055 1245.8 86.5742 1246.12 87.1523C1246.45 87.7227 1246.7 88.4141 1246.87 89.2266C1247.04 90.0312 1247.13 90.9688 1247.13 92.0391ZM1244.3 95.2266V91.6172C1244.3 90.9375 1244.27 90.3398 1244.19 89.8242C1244.11 89.3008 1243.99 88.8594 1243.84 88.5C1243.69 88.1328 1243.5 87.8359 1243.27 87.6094C1243.05 87.375 1242.79 87.207 1242.5 87.1055C1242.21 86.9961 1241.89 86.9414 1241.53 86.9414C1241.09 86.9414 1240.7 87.0273 1240.36 87.1992C1240.01 87.3633 1239.72 87.6289 1239.49 87.9961C1239.25 88.3633 1239.07 88.8477 1238.95 89.4492C1238.83 90.043 1238.77 90.7656 1238.77 91.6172V95.2266C1238.77 95.9141 1238.81 96.5195 1238.89 97.043C1238.97 97.5664 1239.09 98.0156 1239.24 98.3906C1239.4 98.7578 1239.59 99.0625 1239.8 99.3047C1240.03 99.5391 1240.29 99.7109 1240.58 99.8203C1240.88 99.9297 1241.2 99.9844 1241.55 99.9844C1242 99.9844 1242.39 99.8984 1242.73 99.7266C1243.08 99.5547 1243.37 99.2812 1243.6 98.9062C1243.84 98.5234 1244.01 98.0273 1244.13 97.418C1244.25 96.8086 1244.3 96.0781 1244.3 95.2266ZM1260.77 92.0391V94.8281C1260.77 96.1641 1260.64 97.3047 1260.37 98.25C1260.11 99.1875 1259.74 99.9492 1259.25 100.535C1258.75 101.121 1258.16 101.551 1257.48 101.824C1256.8 102.098 1256.04 102.234 1255.19 102.234C1254.52 102.234 1253.89 102.148 1253.32 101.977C1252.75 101.805 1252.23 101.535 1251.77 101.168C1251.31 100.801 1250.91 100.328 1250.59 99.75C1250.27 99.1641 1250.02 98.4648 1249.84 97.6523C1249.66 96.8398 1249.58 95.8984 1249.58 94.8281V92.0391C1249.58 90.6953 1249.71 89.5625 1249.98 88.6406C1250.24 87.7109 1250.62 86.957 1251.11 86.3789C1251.61 85.793 1252.19 85.3672 1252.87 85.1016C1253.56 84.8359 1254.32 84.7031 1255.17 84.7031C1255.85 84.7031 1256.47 84.7891 1257.04 84.9609C1257.62 85.125 1258.14 85.3867 1258.59 85.7461C1259.05 86.1055 1259.44 86.5742 1259.76 87.1523C1260.09 87.7227 1260.34 88.4141 1260.51 89.2266C1260.68 90.0312 1260.77 90.9688 1260.77 92.0391ZM1257.95 95.2266V91.6172C1257.95 90.9375 1257.91 90.3398 1257.83 89.8242C1257.75 89.3008 1257.63 88.8594 1257.48 88.5C1257.33 88.1328 1257.14 87.8359 1256.91 87.6094C1256.69 87.375 1256.43 87.207 1256.14 87.1055C1255.85 86.9961 1255.53 86.9414 1255.17 86.9414C1254.73 86.9414 1254.34 87.0273 1254 87.1992C1253.65 87.3633 1253.36 87.6289 1253.13 87.9961C1252.89 88.3633 1252.71 88.8477 1252.59 89.4492C1252.47 90.043 1252.41 90.7656 1252.41 91.6172V95.2266C1252.41 95.9141 1252.45 96.5195 1252.53 97.043C1252.61 97.5664 1252.73 98.0156 1252.88 98.3906C1253.04 98.7578 1253.23 99.0625 1253.45 99.3047C1253.67 99.5391 1253.93 99.7109 1254.22 99.8203C1254.52 99.9297 1254.84 99.9844 1255.19 99.9844C1255.64 99.9844 1256.03 99.8984 1256.38 99.7266C1256.72 99.5547 1257.01 99.2812 1257.24 98.9062C1257.48 98.5234 1257.65 98.0273 1257.77 97.418C1257.89 96.8086 1257.95 96.0781 1257.95 95.2266Z" fill="#07020D"/>
</svg>
